<svg width="290" height="82" viewBox="0 0 290 82" fill="none" xmlns="http://www.w3.org/2000/svg">
<rect width="290" height="82" fill="white"/>
<rect x="48" y="47.2133" width="184" height="17" transform="rotate(-5.68074 48 47.2133)" fill="#85FFE2"/>
<path d="M88.3721 18.4043C88.1768 18.8275 88.0628 19.1204 88.0303 19.2832C88.0303 19.446 87.9977 19.6087 87.9326 19.7715C87.8675 19.9342 87.8187 20.0482 87.7861 20.1133C87.7861 20.1784 87.7536 20.276 87.6885 20.4062C87.5908 20.569 87.4932 20.6504 87.3955 20.6504C87.2979 20.6504 87.1676 20.7318 87.0049 20.8945C86.9398 20.9922 86.8584 21.0898 86.7607 21.1875C86.6631 21.2852 86.5817 21.3665 86.5166 21.4316C86.4189 21.5944 86.3538 21.7409 86.3213 21.8711C86.2887 22.0013 86.1748 22.099 85.9795 22.1641C85.8818 22.1966 85.7679 22.2129 85.6377 22.2129C85.54 22.1803 85.4587 22.1966 85.3936 22.2617C85.0355 22.3919 84.7425 22.4733 84.5146 22.5059C84.2868 22.5384 84.0426 22.571 83.7822 22.6035C83.3916 22.7663 83.1312 22.8477 83.001 22.8477C82.8708 22.8477 82.7406 22.8639 82.6104 22.8965C82.4801 22.929 82.3337 22.9779 82.1709 23.043C82.0407 23.0755 81.8779 23.1243 81.6826 23.1895C81.5199 23.7428 81.292 24.2148 80.999 24.6055C80.7061 24.9961 80.4619 25.4681 80.2666 26.0215C79.6807 26.9655 79.1598 27.8444 78.7041 28.6582C78.2809 29.472 77.8903 30.2533 77.5322 31.002C77.3695 31.1647 77.223 31.36 77.0928 31.5879C76.9951 31.8158 76.8812 32.0599 76.751 32.3203C76.5882 32.6458 76.4906 32.8249 76.458 32.8574C76.4255 32.89 76.3929 32.9388 76.3604 33.0039C76.2952 33.1341 76.2301 33.2806 76.165 33.4434C76.0999 33.5736 76.0348 33.7201 75.9697 33.8828C75.7744 34.1432 75.6279 34.3711 75.5303 34.5664C75.4652 34.7292 75.4001 34.8919 75.335 35.0547C75.2373 35.2174 75.1396 35.3802 75.042 35.543C74.9443 35.7057 74.8467 35.8848 74.749 36.0801C74.4235 36.8613 74.1305 37.5449 73.8701 38.1309C73.6423 38.6842 73.4469 39.2865 73.2842 39.9375C73.2191 40.1654 73.1377 40.4258 73.04 40.7188C72.9749 41.0117 72.8936 41.2396 72.7959 41.4023C72.1774 42.9974 71.5426 44.625 70.8916 46.2852C70.2406 47.9453 69.6221 49.6217 69.0361 51.3145C69.557 51.3145 69.9801 51.2331 70.3057 51.0703C70.6312 50.875 71.0706 50.7773 71.624 50.7773C71.9821 51.2656 72.0146 51.7539 71.7217 52.2422C71.4613 52.5677 71.3148 52.8118 71.2822 52.9746C71.2497 53.1374 71.2008 53.2839 71.1357 53.4141C70.9404 53.6419 70.8102 53.8047 70.7451 53.9023C70.7126 54 70.6475 54.0977 70.5498 54.1953C70.2568 54.4557 69.7523 54.6348 69.0361 54.7324C68.6781 54.7975 68.3688 54.8789 68.1084 54.9766C67.8805 55.1068 67.6201 55.2044 67.3271 55.2695C67.1318 55.3021 66.9528 55.3346 66.79 55.3672C66.6273 55.3997 66.4808 55.4323 66.3506 55.4648C66.2204 55.4648 66.0902 55.4486 65.96 55.416C65.8623 55.416 65.7646 55.4486 65.667 55.5137C65.1136 55.5137 64.6416 55.5462 64.251 55.6113C63.8929 55.6764 63.5348 55.7578 63.1768 55.8555C62.9163 55.9206 62.6722 56.002 62.4443 56.0996C62.1839 56.1973 61.9072 56.2461 61.6143 56.2461C61.5166 56.2461 61.4189 56.2135 61.3213 56.1484C61.2236 56.1159 61.1097 56.0996 60.9795 56.0996C60.8818 56.002 60.7842 55.8717 60.6865 55.709C60.5889 55.5788 60.54 55.4323 60.54 55.2695C60.54 55.1068 60.5726 54.944 60.6377 54.7812C60.6702 54.651 60.6702 54.5046 60.6377 54.3418C60.6377 53.9512 60.7842 53.6582 61.0771 53.4629C61.3376 53.235 61.5492 52.9909 61.7119 52.7305C62.2002 52.6654 62.6396 52.5514 63.0303 52.3887C63.3883 52.2259 63.8278 52.112 64.3486 52.0469C64.8044 50.7122 65.3089 49.3451 65.8623 47.9453C66.4157 46.5456 66.9528 45.1784 67.4736 43.8438C67.5713 43.5833 67.6689 43.3392 67.7666 43.1113C67.8968 42.8509 68.0107 42.5905 68.1084 42.3301C68.2712 41.9069 68.4339 41.5 68.5967 41.1094C68.7594 40.6862 68.9385 40.263 69.1338 39.8398C69.3291 39.612 69.4756 39.3353 69.5732 39.0098C69.6383 38.847 69.6709 38.7168 69.6709 38.6191C69.7035 38.4889 69.7523 38.3424 69.8174 38.1797C69.9476 37.9193 70.0941 37.6589 70.2568 37.3984C70.4196 37.138 70.5824 36.8776 70.7451 36.6172C70.973 36.2917 71.2008 35.9824 71.4287 35.6895C71.6891 35.3639 71.9333 35.0384 72.1611 34.7129C72.389 34.0618 72.6331 33.4434 72.8936 32.8574C73.1865 32.2389 73.4632 31.6204 73.7236 31.002C73.7887 30.5788 73.9189 30.123 74.1143 29.6348C74.3421 29.1139 74.5374 28.6745 74.7002 28.3164C74.8955 27.9583 75.0583 27.584 75.1885 27.1934C75.3187 26.7702 75.4977 26.3796 75.7256 26.0215C75.7907 25.7936 75.8721 25.5983 75.9697 25.4355C76.0674 25.2402 76.1488 25.0286 76.2139 24.8008C76.3441 24.6055 76.4417 24.3939 76.5068 24.166C76.6045 23.9056 76.7021 23.6452 76.7998 23.3848C76.6696 23.4499 76.5394 23.4987 76.4092 23.5312C76.3115 23.5312 76.1976 23.5475 76.0674 23.5801C75.9697 23.6126 75.8558 23.6615 75.7256 23.7266C75.5954 23.7917 75.4489 23.8405 75.2861 23.873C74.7653 23.9382 74.3096 23.9382 73.9189 23.873C73.4958 23.8079 73.2191 23.515 73.0889 22.9941C73.0563 22.7337 73.1051 22.6035 73.2354 22.6035C73.3981 22.571 73.512 22.4408 73.5771 22.2129C73.5446 21.4642 73.6423 20.9108 73.8701 20.5527C74.098 20.1621 74.391 19.9342 74.749 19.8691C74.9118 19.804 75.0583 19.7715 75.1885 19.7715C75.3187 19.7715 75.4489 19.7064 75.5791 19.5762C75.9046 19.4785 76.2301 19.4297 76.5557 19.4297C76.9137 19.3971 77.2718 19.3483 77.6299 19.2832C77.988 19.2181 78.3298 19.1693 78.6553 19.1367C78.9808 19.0716 79.29 19.0391 79.583 19.0391C79.9411 18.9414 80.2666 18.86 80.5596 18.7949C80.8525 18.6973 81.2106 18.6647 81.6338 18.6973C81.8617 18.6973 82.0732 18.7298 82.2686 18.7949C82.4639 18.8275 82.6755 18.8438 82.9033 18.8438C83.1312 18.8438 83.3428 18.86 83.5381 18.8926C83.766 18.9251 84.0101 18.9089 84.2705 18.8438C84.4658 18.8112 84.6449 18.7461 84.8076 18.6484C85.0029 18.5508 85.1982 18.5345 85.3936 18.5996C85.7191 18.5345 86.0446 18.4694 86.3701 18.4043C86.7282 18.3392 87.0863 18.3066 87.4443 18.3066C87.8024 18.3392 87.9814 18.3392 87.9814 18.3066C87.9814 18.2415 88.0303 18.2253 88.1279 18.2578L88.3721 18.4043ZM92.083 50.1426C92.2132 49.9798 92.3109 49.8659 92.376 49.8008C92.4411 49.7031 92.5387 49.6217 92.6689 49.5566C92.8968 49.0684 93.141 48.6777 93.4014 48.3848C93.6943 48.0592 93.9873 47.7663 94.2803 47.5059C94.5732 47.2129 94.8825 46.9525 95.208 46.7246C95.5661 46.4642 95.9567 46.1549 96.3799 45.7969C96.5426 45.7969 96.6729 45.748 96.7705 45.6504C96.9007 45.5202 97.0472 45.4225 97.21 45.3574C97.4378 45.1621 97.6169 45.0156 97.7471 44.918C97.9098 44.8203 98.04 44.6901 98.1377 44.5273C98.5283 44.332 98.8701 44.0879 99.1631 43.7949C99.4886 43.502 99.8304 43.2253 100.188 42.9648C100.481 42.8997 100.758 42.9323 101.019 43.0625C101.149 43.3229 101.198 43.5996 101.165 43.8926C101.132 44.1855 100.97 44.3483 100.677 44.3809C100.579 44.4785 100.465 44.5762 100.335 44.6738C100.237 44.7715 100.107 44.8366 99.9443 44.8691C99.749 44.9017 99.6025 44.9505 99.5049 45.0156C99.4398 45.0482 99.3747 45.1296 99.3096 45.2598C99.277 45.5853 99.2282 45.7806 99.1631 45.8457C99.1305 45.8783 99.098 45.9271 99.0654 45.9922C98.8701 46.3177 98.6585 46.6107 98.4307 46.8711C98.2354 47.099 98.04 47.3268 97.8447 47.5547C97.6494 47.75 97.4541 47.9779 97.2588 48.2383C97.0635 48.4661 96.8519 48.7591 96.624 49.1172C96.4287 49.2474 96.2822 49.4264 96.1846 49.6543C95.5986 49.9798 95.1592 50.2402 94.8662 50.4355C94.6058 50.5983 94.3617 50.8099 94.1338 51.0703C93.9385 51.2005 93.8408 51.2982 93.8408 51.3633C93.8408 51.4284 93.8083 51.4935 93.7432 51.5586C93.4176 51.819 93.2223 52.0306 93.1572 52.1934C93.1247 52.3236 93.0596 52.4212 92.9619 52.4863C92.6364 52.7142 92.3923 52.9258 92.2295 53.1211C92.0667 53.2839 91.8551 53.4141 91.5947 53.5117C91.3994 53.6745 91.1227 53.8698 90.7646 54.0977C90.4066 54.3255 90.016 54.5371 89.5928 54.7324C89.1696 54.9277 88.7464 55.0579 88.3232 55.123C87.9326 55.2207 87.5908 55.2044 87.2979 55.0742C87.1676 54.9766 87.0537 54.8789 86.9561 54.7812C86.8584 54.7161 86.7445 54.651 86.6143 54.5859C86.3864 54.3255 86.1423 54.1139 85.8818 53.9512C85.654 53.7559 85.4424 53.5117 85.2471 53.2188C85.0192 52.8932 84.8564 52.5514 84.7588 52.1934C84.6937 51.8027 84.5798 51.4284 84.417 51.0703C84.3844 50.6797 84.3844 50.3053 84.417 49.9473C84.4495 49.5566 84.5146 49.2311 84.6123 48.9707C84.9704 47.8639 85.3936 46.9036 85.8818 46.0898C86.4027 45.276 86.7607 44.3483 86.9561 43.3066C86.598 42.9486 86.3864 42.623 86.3213 42.3301C86.2887 42.0046 86.2074 41.5651 86.0771 41.0117C85.2308 41.5651 84.4495 42.265 83.7334 43.1113C83.0173 43.9577 82.3825 44.8203 81.8291 45.6992C81.6012 46.0898 81.4059 46.4479 81.2432 46.7734C81.0804 47.099 80.8851 47.3919 80.6572 47.6523C80.4945 47.8151 80.4131 47.929 80.4131 47.9941C80.4131 48.0267 80.3805 48.0755 80.3154 48.1406C80.055 48.4661 79.8923 48.694 79.8271 48.8242C79.762 48.9544 79.6969 49.0684 79.6318 49.166C79.5667 49.2637 79.4854 49.3613 79.3877 49.459C79.29 49.5566 79.2087 49.6543 79.1436 49.752C78.6878 50.403 78.2646 51.0215 77.874 51.6074C77.516 52.1608 77.1416 52.7305 76.751 53.3164C76.5882 53.5768 76.4417 53.8535 76.3115 54.1465C76.1813 54.4395 76.0186 54.6999 75.8232 54.9277C75.4977 54.9603 75.3187 54.9115 75.2861 54.7812C75.221 54.651 75.221 54.5371 75.2861 54.4395C75.0908 54.3092 74.9443 54.1139 74.8467 53.8535C74.7165 53.5605 74.6514 53.2513 74.6514 52.9258C74.6188 52.6003 74.6188 52.2747 74.6514 51.9492C74.6839 51.6237 74.749 51.347 74.8467 51.1191C74.749 50.8262 74.7165 50.6634 74.749 50.6309C74.7816 50.5983 74.7979 50.5495 74.7979 50.4844C75.221 49.8984 75.6605 49.3125 76.1162 48.7266C76.5394 48.1406 76.9951 47.5872 77.4834 47.0664C77.6462 46.8385 77.7926 46.6107 77.9229 46.3828C78.0856 46.1549 78.2646 45.9434 78.46 45.748C78.7529 45.2272 79.0785 44.7389 79.4365 44.2832C79.8271 43.8275 80.1527 43.3229 80.4131 42.7695C80.5758 42.6068 80.6898 42.4277 80.7549 42.2324C80.8525 42.0371 80.999 41.8743 81.1943 41.7441C81.4222 41.3535 81.6012 40.9792 81.7314 40.6211C81.8617 40.263 82.0407 39.9538 82.2686 39.6934C82.3337 39.4655 82.415 39.2865 82.5127 39.1562C82.6104 39.026 82.7406 38.8796 82.9033 38.7168C82.9359 38.554 83.0173 38.4238 83.1475 38.3262C83.3102 38.196 83.4404 38.0495 83.5381 37.8867C83.6032 37.6589 83.6846 37.5124 83.7822 37.4473C83.8799 37.3822 83.9287 37.2682 83.9287 37.1055C84.0915 36.9427 84.2542 36.7799 84.417 36.6172C84.5798 36.4219 84.7262 36.194 84.8564 35.9336C85.3122 35.6732 85.6214 35.543 85.7842 35.543C85.9795 35.543 86.126 35.4616 86.2236 35.2988C86.484 35.2988 86.7933 35.2988 87.1514 35.2988C87.5094 35.2663 87.7048 35.3802 87.7373 35.6406C87.7699 35.7057 87.7699 35.7871 87.7373 35.8848C87.7048 35.9824 87.6722 36.0801 87.6396 36.1777C87.6722 36.4707 87.6722 36.6335 87.6396 36.666C87.6071 36.666 87.5908 36.6823 87.5908 36.7148C87.5583 36.8125 87.542 36.9264 87.542 37.0566C87.5745 37.1868 87.5908 37.3333 87.5908 37.4961C87.5583 37.7565 87.5257 37.9681 87.4932 38.1309C87.4606 38.2611 87.5257 38.4401 87.6885 38.668C87.7536 38.7656 87.8512 38.8633 87.9814 38.9609C88.1117 39.026 88.2256 39.1237 88.3232 39.2539C88.4209 39.3516 88.4697 39.4492 88.4697 39.5469C88.5023 39.6445 88.5674 39.7422 88.665 39.8398C88.7301 39.9375 88.8278 40.0189 88.958 40.084C89.0882 40.1491 89.1859 40.263 89.251 40.4258C89.4137 40.556 89.4626 40.6374 89.3975 40.6699C89.3649 40.7025 89.4463 40.7676 89.6416 40.8652C90.0322 41.3535 90.3089 41.8581 90.4717 42.3789C90.667 42.7695 90.846 43.0951 91.0088 43.3555C91.1715 43.6159 91.1715 43.8763 91.0088 44.1367C90.9437 44.2018 90.8786 44.2832 90.8135 44.3809C90.7809 44.4785 90.7321 44.5924 90.667 44.7227C90.5368 44.8529 90.4066 45.0156 90.2764 45.2109C90.2113 45.3411 90.1624 45.4714 90.1299 45.6016C90.0973 45.6992 90.0485 45.7969 89.9834 45.8945C89.6904 46.3503 89.3812 46.7734 89.0557 47.1641C88.7627 47.5547 88.5023 47.9616 88.2744 48.3848C88.307 49.3288 88.486 50.0124 88.8115 50.4355C89.2021 50.8913 89.4463 51.1191 89.5439 51.1191C89.7393 51.1517 89.9671 51.0866 90.2275 50.9238C90.488 50.7611 90.6995 50.6309 90.8623 50.5332C90.9925 50.4681 91.1064 50.403 91.2041 50.3379C91.3018 50.2728 91.4157 50.224 91.5459 50.1914C91.904 50.0612 92.0667 50.0286 92.0342 50.0938C92.0016 50.1263 92.0179 50.1426 92.083 50.1426ZM112.249 40.8164C112.282 40.9141 112.249 41.1094 112.151 41.4023C111.989 41.5977 111.891 41.8092 111.858 42.0371C111.793 42.1673 111.728 42.2812 111.663 42.3789C111.631 42.4766 111.598 42.6068 111.565 42.7695C111.5 42.9648 111.468 43.1927 111.468 43.4531C111.5 43.7135 111.5 43.9577 111.468 44.1855C111.403 44.5436 111.354 44.9017 111.321 45.2598C111.289 45.5853 111.256 45.9271 111.224 46.2852C111.224 46.6432 111.191 47.0501 111.126 47.5059C111.061 47.9616 110.996 48.3685 110.931 48.7266C111.061 48.9544 111.142 49.1986 111.175 49.459C111.207 49.7194 111.321 49.931 111.517 50.0938C112.168 49.9961 112.688 49.8496 113.079 49.6543C113.47 49.4264 113.844 49.1172 114.202 48.7266C114.495 48.5964 114.69 48.4824 114.788 48.3848C114.918 48.2871 115.114 48.1569 115.374 47.9941C115.439 47.929 115.504 47.8639 115.569 47.7988C115.634 47.7337 115.7 47.6686 115.765 47.6035C116.123 47.4082 116.334 47.278 116.399 47.2129C116.497 47.1478 116.611 47.0827 116.741 47.0176C117.295 46.6595 117.718 46.2852 118.011 45.8945C118.304 45.6667 118.499 45.4714 118.597 45.3086C118.727 45.1133 118.987 44.9342 119.378 44.7715C119.606 44.5111 119.834 44.2995 120.062 44.1367C120.322 43.9414 120.566 43.7135 120.794 43.4531C120.957 43.4531 121.087 43.4857 121.185 43.5508C121.282 43.6159 121.396 43.681 121.526 43.7461C121.624 44.0065 121.64 44.2832 121.575 44.5762C121.51 44.8366 121.396 45.0807 121.233 45.3086C121.071 45.5365 120.989 45.6667 120.989 45.6992C120.989 45.7318 120.973 45.7643 120.94 45.7969C120.843 45.9271 120.713 46.0573 120.55 46.1875C120.42 46.2852 120.306 46.3991 120.208 46.5293C120.045 46.8223 119.915 46.9688 119.817 46.9688C119.72 46.9688 119.638 47.0013 119.573 47.0664C119.28 47.2292 119.069 47.3594 118.938 47.457C118.841 47.5547 118.662 47.6849 118.401 47.8477C118.043 48.043 117.832 48.1732 117.767 48.2383C117.701 48.3034 117.636 48.3522 117.571 48.3848C117.148 48.8405 116.757 49.2148 116.399 49.5078C116.074 49.7682 115.716 50.1263 115.325 50.582C115.195 50.6797 115.065 50.7773 114.935 50.875C114.804 50.9727 114.69 51.1029 114.593 51.2656C114.3 51.4609 114.056 51.6562 113.86 51.8516C113.698 52.0469 113.502 52.2747 113.274 52.5352C113.079 52.6328 112.868 52.7793 112.64 52.9746C112.412 53.1374 112.168 53.2839 111.907 53.4141C111.777 53.4792 111.631 53.5605 111.468 53.6582C111.338 53.7233 111.191 53.7559 111.028 53.7559C110.638 53.821 110.28 53.7884 109.954 53.6582C109.629 53.528 109.319 53.4303 109.026 53.3652C108.896 53.1699 108.733 53.0072 108.538 52.877C108.245 52.5189 108.034 52.0957 107.903 51.6074C107.773 51.1191 107.643 50.5983 107.513 50.0449C107.252 50.2077 107.008 50.4193 106.78 50.6797C106.552 50.9401 106.259 51.1517 105.901 51.3145C105.25 51.9329 104.55 52.5352 103.802 53.1211C103.086 53.6745 102.353 54.2604 101.604 54.8789C101.507 54.9766 101.409 55.0579 101.312 55.123C101.214 55.1882 101.132 55.2044 101.067 55.1719C100.905 55.3672 100.677 55.4811 100.384 55.5137C100.123 55.5788 99.8304 55.5788 99.5049 55.5137C99.1794 55.3509 98.8864 55.237 98.626 55.1719C98.3656 55.1068 98.1051 55.0091 97.8447 54.8789C97.2913 54.7812 96.8356 54.5371 96.4775 54.1465C96.0869 53.7559 95.7614 53.3001 95.501 52.7793C95.4033 52.5189 95.3382 52.2747 95.3057 52.0469C95.2406 51.819 95.1755 51.5586 95.1104 51.2656C95.0778 51.0052 95.029 50.7936 94.9639 50.6309C94.8988 50.4355 94.8988 50.2565 94.9639 50.0938C94.8988 49.9961 94.8825 49.8984 94.915 49.8008C94.9476 49.6706 94.9639 49.5404 94.9639 49.4102C94.9313 48.9544 94.9801 48.4661 95.1104 47.9453C95.208 47.4245 95.3545 46.9525 95.5498 46.5293C95.6149 46.3991 95.7451 46.2363 95.9404 46.041C96.0055 45.9434 96.0544 45.8457 96.0869 45.748C96.1195 45.6504 96.1683 45.569 96.2334 45.5039C96.2985 45.4062 96.3962 45.3086 96.5264 45.2109C96.6566 45.1133 96.7705 45.0156 96.8682 44.918C97.0309 44.6901 97.21 44.4948 97.4053 44.332C97.6331 44.1367 97.8447 43.9414 98.04 43.7461C98.1377 43.6484 98.2191 43.5345 98.2842 43.4043C98.3818 43.2741 98.512 43.1764 98.6748 43.1113C98.805 42.8835 98.9515 42.7044 99.1143 42.5742C99.277 42.4115 99.4561 42.2487 99.6514 42.0859C100.205 41.4023 100.888 40.8327 101.702 40.377C102.516 39.9212 103.248 39.4004 103.899 38.8145C104.127 38.7168 104.323 38.6029 104.485 38.4727C104.648 38.3424 104.811 38.2122 104.974 38.082C105.397 37.724 105.836 37.61 106.292 37.7402C106.748 37.8704 107.171 37.9844 107.562 38.082C107.887 38.375 108.196 38.668 108.489 38.9609C108.815 39.2539 109.091 39.5794 109.319 39.9375C109.547 39.9049 109.808 39.9049 110.101 39.9375C110.394 39.9375 110.703 39.9049 111.028 39.8398C111.126 39.8398 111.224 39.8236 111.321 39.791C111.419 39.7259 111.5 39.6934 111.565 39.6934C112.054 39.8561 112.298 40.1003 112.298 40.4258L112.249 40.8164ZM105.853 41.1582C104.974 41.5814 104.176 42.0859 103.46 42.6719C102.744 43.2253 102.06 43.8275 101.409 44.4785C101.246 44.6413 101.067 44.804 100.872 44.9668C100.709 45.097 100.563 45.2435 100.433 45.4062C100.302 45.569 100.172 45.7643 100.042 45.9922C99.9443 46.2201 99.8467 46.4316 99.749 46.627C99.6839 46.7572 99.6188 46.8711 99.5537 46.9688C99.4886 47.0339 99.4235 47.1152 99.3584 47.2129C99.2933 47.3757 99.2607 47.5384 99.2607 47.7012C99.2933 47.8639 99.3096 48.043 99.3096 48.2383C99.3096 48.401 99.3096 48.5638 99.3096 48.7266C99.3096 48.8893 99.3258 49.0521 99.3584 49.2148C99.4561 49.5729 99.5049 49.931 99.5049 50.2891C99.5049 50.5495 99.5212 50.875 99.5537 51.2656C99.6188 51.6237 99.749 51.8678 99.9443 51.998C100.14 52.1283 100.335 52.1608 100.53 52.0957C100.758 52.0306 100.953 51.9818 101.116 51.9492C102.256 51.0703 103.33 50.1589 104.339 49.2148C105.348 48.2383 106.243 47.1478 107.024 45.9434C106.959 45.097 106.943 44.2832 106.976 43.502C107.041 42.6882 106.976 41.9395 106.78 41.2559C106.65 41.1908 106.487 41.1745 106.292 41.207C106.129 41.207 105.983 41.1908 105.853 41.1582ZM159.71 18.9902C159.808 19.2832 159.856 19.4785 159.856 19.5762C159.922 19.6738 160.035 19.8203 160.198 20.0156C160.394 20.1784 160.54 20.2598 160.638 20.2598C161.028 20.2598 161.24 20.276 161.272 20.3086C161.338 20.3411 161.403 20.3737 161.468 20.4062C161.468 20.7643 161.484 20.9596 161.517 20.9922C161.549 21.0247 161.582 21.0736 161.614 21.1387C161.614 21.2689 161.582 21.4967 161.517 21.8223C161.451 22.0827 161.338 22.3431 161.175 22.6035C161.012 22.8639 160.849 23.1243 160.687 23.3848C160.524 23.6452 160.345 23.8893 160.149 24.1172C159.987 24.3451 159.824 24.5729 159.661 24.8008C159.498 25.0286 159.384 25.2565 159.319 25.4844C159.254 25.6797 159.091 25.875 158.831 26.0703C158.603 26.2331 158.375 26.3958 158.147 26.5586C157.92 26.7214 157.708 26.9004 157.513 27.0957L156.927 27.8281C156.862 27.9909 156.764 28.1374 156.634 28.2676C156.536 28.3652 156.455 28.4792 156.39 28.6094C156.194 28.9023 156.032 29.1953 155.901 29.4883C155.804 29.7812 155.592 30.0417 155.267 30.2695C154.811 31.0833 154.29 31.832 153.704 32.5156C153.118 33.1992 152.565 33.9316 152.044 34.7129C152.402 34.7454 152.76 34.7454 153.118 34.7129C153.509 34.6478 153.932 34.599 154.388 34.5664C155.364 34.5013 156.276 34.4525 157.122 34.4199C157.968 34.3874 158.815 34.3711 159.661 34.3711C159.922 34.5664 160.003 34.8105 159.905 35.1035C159.743 35.1035 159.612 35.1523 159.515 35.25C159.45 35.3151 159.336 35.3151 159.173 35.25C159.043 35.3151 158.961 35.3965 158.929 35.4941C158.896 35.5918 158.847 35.6732 158.782 35.7383C158.587 36.3242 158.147 36.6335 157.464 36.666C156.813 36.666 156.211 36.6986 155.657 36.7637C155.299 36.7962 155.104 36.8288 155.071 36.8613C155.071 36.8613 155.055 36.8613 155.022 36.8613C154.437 36.9264 153.834 37.0078 153.216 37.1055C152.63 37.1706 152.044 37.2357 151.458 37.3008C151.295 37.431 151.1 37.4798 150.872 37.4473C150.677 37.3822 150.498 37.3822 150.335 37.4473C150.237 37.5124 150.172 37.5938 150.14 37.6914C150.107 37.7891 150.058 37.8867 149.993 37.9844C149.83 38.2122 149.684 38.4238 149.554 38.6191C149.424 38.8145 149.277 39.026 149.114 39.2539C148.951 39.4167 148.789 39.5957 148.626 39.791C148.496 39.9863 148.366 40.1979 148.235 40.4258C148.105 40.5234 147.991 40.6374 147.894 40.7676C147.828 40.8978 147.747 41.028 147.649 41.1582C147.389 41.5163 147.112 41.8906 146.819 42.2812C146.526 42.6393 146.233 42.9974 145.94 43.3555C145.778 43.6484 145.599 43.9414 145.403 44.2344C145.241 44.4948 145.062 44.7878 144.866 45.1133C144.769 45.3086 144.671 45.5202 144.573 45.748C144.508 45.9434 144.443 46.1387 144.378 46.334C144.28 46.5944 144.166 46.8223 144.036 47.0176C143.938 47.1803 143.857 47.3757 143.792 47.6035C143.629 47.8639 143.466 48.1406 143.304 48.4336C143.141 48.7266 142.978 49.0358 142.815 49.3613C142.392 50.0124 141.937 50.7122 141.448 51.4609C140.993 52.1771 140.553 52.9258 140.13 53.707C140 53.9023 139.886 54.0977 139.788 54.293C139.69 54.5208 139.56 54.7161 139.397 54.8789C139.3 55.0091 139.186 55.1068 139.056 55.1719C138.958 55.237 138.86 55.3021 138.763 55.3672C138.502 55.5625 138.193 55.7741 137.835 56.002C137.477 56.2298 137.168 56.4251 136.907 56.5879C136.549 56.7181 136.305 56.8809 136.175 57.0762C136.045 57.2715 135.947 57.4831 135.882 57.7109C135.394 57.9388 135.052 57.9388 134.856 57.7109C134.661 57.4831 134.58 57.2715 134.612 57.0762C134.612 56.946 134.694 56.7669 134.856 56.5391C135.052 56.3112 135.182 56.1322 135.247 56.002L135.735 55.2695C135.833 55.0091 135.898 54.8301 135.931 54.7324C135.996 54.6348 136.061 54.5371 136.126 54.4395C136.191 54.3092 136.24 54.2116 136.272 54.1465C136.338 54.0814 136.37 53.9837 136.37 53.8535C136.533 53.6582 136.663 53.4629 136.761 53.2676C136.858 53.0397 136.972 52.8118 137.103 52.584C137.363 52.3236 137.591 52.0143 137.786 51.6562C137.981 51.2982 138.226 50.9727 138.519 50.6797C138.584 50.4844 138.665 50.3216 138.763 50.1914C138.86 50.0612 138.974 49.931 139.104 49.8008C139.3 49.4102 139.511 49.0358 139.739 48.6777C139.967 48.2871 140.114 47.8314 140.179 47.3105C140.309 46.7897 140.472 46.3991 140.667 46.1387C140.862 45.8783 141.041 45.6016 141.204 45.3086C141.269 45.0807 141.334 44.8691 141.399 44.6738C141.465 44.4785 141.578 44.2995 141.741 44.1367C141.937 43.8112 142.099 43.5182 142.229 43.2578C142.36 42.9974 142.506 42.7044 142.669 42.3789C142.832 41.9232 143.076 41.4674 143.401 41.0117C143.466 40.9141 143.532 40.8327 143.597 40.7676C143.662 40.6699 143.727 40.556 143.792 40.4258C143.922 40.2305 144.02 40.0189 144.085 39.791C144.183 39.5632 144.297 39.3516 144.427 39.1562C144.524 38.9935 144.622 38.8633 144.72 38.7656C144.85 38.6354 144.915 38.4401 144.915 38.1797C144.622 38.1146 144.362 38.1471 144.134 38.2773C143.743 38.3099 143.287 38.375 142.767 38.4727C142.278 38.5378 141.774 38.5703 141.253 38.5703C141.09 38.5703 140.895 38.5866 140.667 38.6191C140.472 38.6191 140.276 38.6354 140.081 38.668C139.918 38.7331 139.756 38.8145 139.593 38.9121C139.43 38.9772 139.267 38.9284 139.104 38.7656C138.974 38.5703 138.877 38.4727 138.812 38.4727C138.779 38.4401 138.746 38.3913 138.714 38.3262C138.551 38.0007 138.372 37.7402 138.177 37.5449C138.112 37.4473 138.063 37.3659 138.03 37.3008C138.03 37.2031 137.965 37.1217 137.835 37.0566C137.737 36.959 137.64 36.7799 137.542 36.5195C137.868 36.0964 138.307 35.8848 138.86 35.8848C140.293 35.5592 141.709 35.3314 143.108 35.2012C144.508 35.071 145.892 34.9082 147.259 34.7129C147.356 34.6478 147.422 34.5664 147.454 34.4688C147.519 34.3385 147.584 34.2246 147.649 34.127C147.812 33.9316 147.975 33.7526 148.138 33.5898C148.333 33.3945 148.479 33.1667 148.577 32.9062C148.707 32.8411 148.789 32.7598 148.821 32.6621C148.854 32.5645 148.919 32.4831 149.017 32.418C149.147 32.2552 149.212 32.1087 149.212 31.9785C149.244 31.8483 149.293 31.7507 149.358 31.6855C149.716 31.1973 149.961 30.8555 150.091 30.6602C150.221 30.4323 150.368 30.2044 150.53 29.9766C150.693 29.7487 150.856 29.5534 151.019 29.3906C151.181 29.1953 151.344 29 151.507 28.8047C151.637 28.6419 151.751 28.5117 151.849 28.4141C151.946 28.2839 152.044 28.1536 152.142 28.0234C152.402 27.5677 152.744 27.0957 153.167 26.6074C153.525 26.1842 153.818 25.7285 154.046 25.2402C154.241 25.2077 154.355 25.1263 154.388 24.9961C154.453 24.8333 154.55 24.7031 154.681 24.6055C154.843 24.2148 155.039 23.873 155.267 23.5801C155.494 23.2546 155.69 22.8965 155.853 22.5059C155.69 22.4733 155.494 22.5059 155.267 22.6035C155.039 22.7012 154.795 22.75 154.534 22.75C154.209 22.8151 153.948 22.8802 153.753 22.9453C153.558 23.0104 153.33 23.0755 153.069 23.1406C152.581 23.2057 152.06 23.3522 151.507 23.5801C150.986 23.8079 150.481 23.987 149.993 24.1172C148.756 24.2474 147.584 24.3776 146.478 24.5078C145.371 24.638 144.248 24.752 143.108 24.8496C142.848 24.8822 142.588 24.9147 142.327 24.9473C142.067 24.9798 141.806 24.9961 141.546 24.9961C141.025 24.9961 140.504 25.0449 139.983 25.1426C139.821 25.11 139.674 25.11 139.544 25.1426C139.414 25.1751 139.267 25.1751 139.104 25.1426C138.714 25.0124 138.47 24.9147 138.372 24.8496C138.274 24.7845 138.144 24.752 137.981 24.752C137.851 24.6868 137.754 24.6217 137.688 24.5566C137.623 24.4915 137.558 24.459 137.493 24.459C137.265 24.166 137.135 23.987 137.103 23.9219C137.07 23.8242 137.168 23.7103 137.396 23.5801C137.526 23.2546 137.786 23.0592 138.177 22.9941C138.6 22.929 138.942 22.8314 139.202 22.7012C139.658 22.6035 140.097 22.5221 140.521 22.457C140.976 22.3594 141.448 22.2617 141.937 22.1641C142.457 22.0013 142.864 21.9199 143.157 21.9199C143.45 21.8874 143.727 21.806 143.987 21.6758C144.476 21.6432 144.931 21.5781 145.354 21.4805C145.81 21.3503 146.266 21.2363 146.722 21.1387C146.852 21.0736 146.982 21.041 147.112 21.041C147.275 21.0085 147.405 20.9434 147.503 20.8457C147.861 20.8457 148.04 20.8132 148.04 20.748C149.7 20.4225 151.312 20.0482 152.874 19.625C154.437 19.2018 156.08 18.9089 157.806 18.7461C158.164 18.7135 158.506 18.7298 158.831 18.7949C159.189 18.8275 159.482 18.8926 159.71 18.9902ZM162.347 40.084C162.119 40.377 161.891 40.6536 161.663 40.9141C161.435 41.1745 161.175 41.4186 160.882 41.6465C160.687 42.0046 160.459 42.3301 160.198 42.623C159.938 42.916 159.677 43.1927 159.417 43.4531C159.287 43.7135 159.14 43.9251 158.978 44.0879C158.815 44.2181 158.636 44.3646 158.44 44.5273C158.343 44.6901 158.213 44.8529 158.05 45.0156C157.92 45.1784 157.789 45.3411 157.659 45.5039C157.562 45.6667 157.48 45.8457 157.415 46.041C157.35 46.2363 157.366 46.4479 157.464 46.6758C157.822 46.7409 158.18 46.6921 158.538 46.5293C158.896 46.3665 159.205 46.2201 159.466 46.0898C159.726 45.9271 159.987 45.7969 160.247 45.6992C160.54 45.569 160.8 45.4225 161.028 45.2598L162.298 43.9902C162.526 43.7949 162.721 43.5833 162.884 43.3555C163.047 43.1276 163.226 42.8835 163.421 42.623C163.486 42.2975 163.616 41.972 163.812 41.6465C164.007 41.2884 164.088 40.9466 164.056 40.6211C164.023 40.4258 163.958 40.263 163.86 40.1328C163.795 39.9701 163.746 39.8073 163.714 39.6445C163.388 39.6445 163.128 39.7096 162.933 39.8398C162.77 39.9375 162.575 40.0189 162.347 40.084ZM154.485 43.209C154.55 43.1764 154.681 43.0462 154.876 42.8184C155.104 42.5579 155.348 42.2812 155.608 41.9883C155.869 41.6628 156.113 41.3861 156.341 41.1582C156.569 40.8978 156.731 40.7513 156.829 40.7188C156.927 40.556 157.008 40.4258 157.073 40.3281C157.171 40.1979 157.301 40.084 157.464 39.9863C157.724 39.498 158.066 39.1074 158.489 38.8145C158.912 38.4889 159.319 38.1146 159.71 37.6914C160.328 37.431 160.947 37.1055 161.565 36.7148C162.216 36.2917 162.933 36.0638 163.714 36.0312C164.072 36.194 164.414 36.2428 164.739 36.1777C165.097 36.1126 165.423 36.194 165.716 36.4219C165.879 36.7148 166.025 36.9102 166.155 37.0078C166.285 37.0729 166.383 37.1543 166.448 37.252C166.578 37.6751 166.676 37.9518 166.741 38.082C166.806 38.1797 166.855 38.3099 166.888 38.4727C166.92 38.9609 166.953 39.319 166.985 39.5469C167.018 39.7422 167.018 39.9375 166.985 40.1328C166.888 41.0117 166.725 41.8418 166.497 42.623C166.432 42.8184 166.367 43.0299 166.302 43.2578C166.237 43.4531 166.155 43.6322 166.058 43.7949C165.83 44.0879 165.651 44.3483 165.521 44.5762C165.423 44.7715 165.325 44.9342 165.228 45.0645C164.837 45.4551 164.495 45.7806 164.202 46.041C163.909 46.2038 163.616 46.3828 163.323 46.5781C163.03 46.7734 162.705 46.9036 162.347 46.9688C162.184 47.0664 162.037 47.1641 161.907 47.2617C161.777 47.3268 161.614 47.3757 161.419 47.4082C161.093 47.6361 160.768 47.8151 160.442 47.9453C160.117 48.043 159.775 48.1732 159.417 48.3359C159.222 48.401 159.01 48.515 158.782 48.6777C158.554 48.8405 158.326 48.9707 158.099 49.0684C157.903 49.1335 157.659 49.1986 157.366 49.2637C157.106 49.2962 156.894 49.3451 156.731 49.4102C156.894 49.7682 156.959 50.1751 156.927 50.6309C156.894 51.0866 156.976 51.4935 157.171 51.8516C157.594 51.9492 158.05 52.0306 158.538 52.0957C159.059 52.1283 159.547 52.112 160.003 52.0469C160.166 52.0143 160.345 51.9655 160.54 51.9004C160.735 51.8027 160.931 51.7376 161.126 51.7051C161.484 51.64 161.826 51.5586 162.151 51.4609C162.509 51.3633 162.819 51.2331 163.079 51.0703C164.023 50.7448 164.935 50.3053 165.813 49.752C166.692 49.1986 167.457 48.5964 168.108 47.9453C168.499 47.6849 168.922 47.3268 169.378 46.8711C169.866 46.4154 170.241 45.9922 170.501 45.6016C170.989 45.0807 171.412 44.6738 171.771 44.3809C172.161 44.0879 172.519 43.9577 172.845 43.9902C173.105 43.9902 173.349 44.153 173.577 44.4785C173.838 44.7715 173.821 45.097 173.528 45.4551C173.203 45.6504 172.861 45.9434 172.503 46.334C172.145 46.7246 171.771 47.0013 171.38 47.1641C171.087 47.3594 170.713 47.7174 170.257 48.2383C169.834 48.7591 169.476 49.1497 169.183 49.4102C169.052 49.5404 168.873 49.7031 168.646 49.8984C168.45 50.0612 168.287 50.224 168.157 50.3867C167.701 50.7773 167.213 51.1354 166.692 51.4609C166.497 51.3958 166.351 51.4284 166.253 51.5586C166.155 51.6888 166.025 51.819 165.862 51.9492C165.765 52.0143 165.651 52.0794 165.521 52.1445C165.423 52.2096 165.325 52.2747 165.228 52.3398C164.967 52.5677 164.674 52.7956 164.349 53.0234C164.056 53.2513 163.746 53.4466 163.421 53.6094C162.77 54 162.119 54.3255 161.468 54.5859C160.817 54.8789 160.182 55.237 159.563 55.6602C159.368 55.6927 159.189 55.709 159.026 55.709C158.864 55.7415 158.701 55.7741 158.538 55.8066C158.343 55.8717 158.164 55.9043 158.001 55.9043C157.871 55.9043 157.675 55.8717 157.415 55.8066C156.829 55.6439 156.341 55.4486 155.95 55.2207C155.56 54.9928 155.169 54.6673 154.778 54.2441C154.583 54.0488 154.371 53.8698 154.144 53.707C153.916 53.5443 153.737 53.3652 153.606 53.1699C153.509 53.0072 153.395 52.7467 153.265 52.3887C153.134 52.0306 153.021 51.6562 152.923 51.2656C152.825 50.8424 152.744 50.4355 152.679 50.0449C152.614 49.6543 152.581 49.3613 152.581 49.166C152.646 49.0358 152.728 48.8079 152.825 48.4824C152.89 48.1569 152.972 47.8151 153.069 47.457C153.134 47.0664 153.2 46.7083 153.265 46.3828C153.297 46.0573 153.313 45.8294 153.313 45.6992C153.346 45.6667 153.427 45.5365 153.558 45.3086C153.688 45.0482 153.834 44.7715 153.997 44.4785C154.127 44.1855 154.241 43.9251 154.339 43.6973C154.437 43.4368 154.485 43.2741 154.485 43.209ZM185.149 27.0469C185.573 27.112 185.931 27.1608 186.224 27.1934C186.517 27.2259 186.777 27.2585 187.005 27.291C187.265 27.291 187.526 27.291 187.786 27.291C188.047 27.2585 188.372 27.2096 188.763 27.1445C189.479 27.0469 190.114 26.9655 190.667 26.9004C191.253 26.8027 191.888 26.7214 192.571 26.6562C192.767 26.6237 192.962 26.6237 193.157 26.6562C193.385 26.6888 193.597 26.7051 193.792 26.7051C194.215 26.7051 194.622 26.6888 195.013 26.6562C195.436 26.6237 195.826 26.5911 196.185 26.5586C196.315 26.526 196.429 26.4935 196.526 26.4609C196.624 26.4284 196.722 26.4284 196.819 26.4609C197.112 26.4609 197.405 26.4609 197.698 26.4609C197.991 26.4284 198.252 26.526 198.479 26.7539C198.577 27.0794 198.61 27.2585 198.577 27.291C198.545 27.3236 198.512 27.3724 198.479 27.4375C198.447 27.8607 198.382 28.0723 198.284 28.0723C198.219 28.0723 198.187 28.1048 198.187 28.1699C197.926 28.235 197.698 28.3001 197.503 28.3652C197.34 28.3978 197.21 28.4954 197.112 28.6582C196.559 28.7884 196.038 28.821 195.55 28.7559C195.094 28.6582 194.622 28.7233 194.134 28.9512C193.906 29.0488 193.662 29.179 193.401 29.3418C193.174 29.472 192.881 29.472 192.522 29.3418C192.197 29.3418 191.823 29.3581 191.399 29.3906C190.976 29.4232 190.569 29.4557 190.179 29.4883C189.43 29.5534 188.779 29.6185 188.226 29.6836C187.705 29.7161 187.2 29.7487 186.712 29.7812C186.224 29.7812 185.719 29.7975 185.198 29.8301C184.71 29.8626 184.108 29.8789 183.392 29.8789C183.131 30.1068 182.952 30.3835 182.854 30.709C182.789 31.0345 182.627 31.2949 182.366 31.4902C182.106 32.1087 181.894 32.5319 181.731 32.7598C181.569 32.9551 181.455 33.1992 181.39 33.4922C180.934 34.0781 180.511 34.6966 180.12 35.3477C179.762 35.9661 179.339 36.5521 178.851 37.1055C178.785 37.4635 178.655 37.7891 178.46 38.082C178.297 38.3424 178.183 38.7005 178.118 39.1562C177.76 39.6445 177.5 40.1816 177.337 40.7676C177.174 41.3535 176.963 41.972 176.702 42.623C176.637 42.8835 176.556 43.1439 176.458 43.4043C176.393 43.6322 176.312 43.8763 176.214 44.1367C176.084 44.4622 175.921 44.7715 175.726 45.0645C175.563 45.3249 175.4 45.6178 175.237 45.9434C175.172 46.0085 175.14 46.1061 175.14 46.2363C175.14 46.334 175.123 46.4154 175.091 46.4805C174.993 46.7083 174.896 46.9199 174.798 47.1152C174.7 47.278 174.619 47.4408 174.554 47.6035C174.489 47.7663 174.44 47.9453 174.407 48.1406C174.407 48.3034 174.375 48.4661 174.31 48.6289C174.277 48.7266 174.244 48.8242 174.212 48.9219C174.179 48.987 174.147 49.0684 174.114 49.166C174.017 49.6217 174.017 49.931 174.114 50.0938C174.212 50.2565 174.293 50.4193 174.358 50.582C174.424 50.7773 174.489 50.9564 174.554 51.1191C174.619 51.2493 174.668 51.3958 174.7 51.5586C174.863 51.6237 175.009 51.6888 175.14 51.7539C175.302 51.819 175.465 51.8516 175.628 51.8516C175.823 51.8841 176.035 51.8027 176.263 51.6074C176.491 51.3796 176.686 51.2493 176.849 51.2168C177.076 51.1517 177.288 51.1191 177.483 51.1191C177.711 51.1191 177.907 51.0703 178.069 50.9727C178.265 50.8099 178.427 50.6471 178.558 50.4844C178.688 50.3216 178.867 50.2077 179.095 50.1426C179.616 50.0124 179.892 49.9147 179.925 49.8496C179.957 49.752 180.071 49.6217 180.267 49.459C180.494 49.2962 180.69 49.1497 180.853 49.0195C181.048 48.8568 181.276 48.694 181.536 48.5312C181.862 48.3685 182.041 48.2708 182.073 48.2383C182.138 48.2057 182.285 48.0918 182.513 47.8965C182.838 47.7337 183.115 47.5547 183.343 47.3594C183.571 47.1641 183.831 46.985 184.124 46.8223C184.45 46.6921 184.645 46.6107 184.71 46.5781C184.775 46.513 184.808 46.4642 184.808 46.4316C184.84 46.3991 184.873 46.3503 184.905 46.2852C184.97 46.2201 185.133 46.1061 185.394 45.9434C185.524 45.6829 185.67 45.4714 185.833 45.3086C185.996 45.1458 186.191 44.9342 186.419 44.6738C186.614 44.446 186.81 44.2507 187.005 44.0879C187.233 43.9251 187.428 43.7624 187.591 43.5996C187.688 43.5345 187.77 43.4694 187.835 43.4043C187.9 43.3066 188.014 43.2415 188.177 43.209C188.372 43.0462 188.519 42.916 188.616 42.8184C188.746 42.6882 188.942 42.5091 189.202 42.2812C189.267 42.2161 189.349 42.1348 189.446 42.0371C189.544 41.9395 189.625 41.8743 189.69 41.8418C189.821 41.8418 189.918 41.8906 189.983 41.9883C190.081 42.0859 190.195 42.1348 190.325 42.1348C190.293 42.5579 190.276 42.8346 190.276 42.9648C190.276 43.0625 190.244 43.1764 190.179 43.3066C189.983 43.5996 189.756 43.7624 189.495 43.7949C189.267 43.8275 189.088 44.0065 188.958 44.332C188.86 44.2669 188.73 44.2507 188.567 44.2832C188.437 44.3158 188.34 44.3646 188.274 44.4297C188.34 44.5599 188.372 44.6738 188.372 44.7715C188.372 44.8691 188.388 44.9831 188.421 45.1133C187.835 45.6992 187.444 46.1712 187.249 46.5293C186.858 46.9525 186.647 47.1966 186.614 47.2617C186.582 47.2943 186.565 47.3105 186.565 47.3105C186.565 47.3105 186.549 47.3268 186.517 47.3594C186.484 47.3919 186.37 47.5059 186.175 47.7012C185.719 48.0592 185.377 48.401 185.149 48.7266C184.922 49.0521 184.58 49.3451 184.124 49.6055C183.766 49.8659 183.522 50.0612 183.392 50.1914C183.261 50.3216 183.066 50.5007 182.806 50.7285C182.675 50.8587 182.545 51.0052 182.415 51.168C182.317 51.2982 182.187 51.4284 182.024 51.5586C181.797 51.7214 181.569 51.8678 181.341 51.998C181.146 52.1283 180.966 52.291 180.804 52.4863C180.315 52.7142 179.957 52.9746 179.729 53.2676C179.534 53.5605 179.225 53.8372 178.802 54.0977C178.509 54.293 178.102 54.5371 177.581 54.8301C177.093 55.123 176.67 55.3346 176.312 55.4648C176.214 55.4974 176.116 55.5299 176.019 55.5625C175.953 55.5951 175.872 55.6276 175.774 55.6602C175.514 55.4974 175.254 55.3346 174.993 55.1719C174.765 55.0091 174.57 54.7812 174.407 54.4883C174.114 54.2604 173.87 54.0977 173.675 54C173.512 53.9023 173.349 53.7721 173.187 53.6094C172.861 53.056 172.487 52.5026 172.063 51.9492C171.673 51.3958 171.364 50.7773 171.136 50.0938C171.071 49.9635 171.022 49.8333 170.989 49.7031C170.989 49.5404 170.973 49.3776 170.94 49.2148C170.875 48.9544 170.81 48.7266 170.745 48.5312C170.68 48.3359 170.664 48.0918 170.696 47.7988C170.696 47.6035 170.729 47.3919 170.794 47.1641C170.859 46.9362 170.924 46.6921 170.989 46.4316C171.119 46.0085 171.266 45.6016 171.429 45.2109C171.624 44.8203 171.771 44.3971 171.868 43.9414C171.966 43.5833 172.063 43.2578 172.161 42.9648C172.259 42.6719 172.373 42.3464 172.503 41.9883C172.568 41.8255 172.601 41.679 172.601 41.5488C172.633 41.3861 172.731 41.2721 172.894 41.207C173.024 40.556 173.235 39.9375 173.528 39.3516C173.821 38.7331 174.114 38.1471 174.407 37.5938C174.765 36.9102 175.091 36.2103 175.384 35.4941C175.709 34.778 176.051 34.0781 176.409 33.3945C176.442 33.0039 176.572 32.6784 176.8 32.418C176.832 32.0599 176.963 31.7181 177.19 31.3926C177.418 31.0345 177.581 30.6764 177.679 30.3184C177.321 30.2207 176.914 30.2207 176.458 30.3184C176.035 30.3835 175.66 30.4486 175.335 30.5137C174.749 30.5462 174.131 30.5462 173.479 30.5137C173.252 30.4811 173.024 30.4486 172.796 30.416C172.601 30.3509 172.405 30.3184 172.21 30.3184C171.917 30.3509 171.689 30.3346 171.526 30.2695C171.396 30.1719 171.25 30.1556 171.087 30.2207C170.664 29.8626 170.354 29.6185 170.159 29.4883C169.964 29.3581 169.785 29.2441 169.622 29.1465C169.427 29.0163 169.264 28.8861 169.134 28.7559C168.971 28.5931 168.841 28.3652 168.743 28.0723C168.743 27.9746 168.792 27.8932 168.89 27.8281C168.987 27.763 169.069 27.6979 169.134 27.6328C169.394 27.5677 169.687 27.5514 170.013 27.584C170.338 27.584 170.599 27.5189 170.794 27.3887C171.315 27.4538 171.787 27.4212 172.21 27.291C172.666 27.1608 173.138 27.112 173.626 27.1445C173.724 27.1445 173.821 27.1608 173.919 27.1934C174.017 27.2259 174.114 27.2422 174.212 27.2422C174.375 27.2747 174.505 27.2747 174.603 27.2422C174.733 27.2096 174.879 27.1771 175.042 27.1445C175.237 27.112 175.449 27.112 175.677 27.1445C175.905 27.1771 176.132 27.1771 176.36 27.1445C176.784 27.112 177.288 27.1608 177.874 27.291C178.493 27.3887 179.03 27.3561 179.485 27.1934C179.648 26.7376 179.827 26.2819 180.022 25.8262C180.25 25.3379 180.429 24.8659 180.56 24.4102C180.69 24.2148 180.82 24.0033 180.95 23.7754C181.08 23.515 181.178 23.2708 181.243 23.043C181.438 22.7174 181.585 22.457 181.683 22.2617C181.813 22.0664 181.959 21.8711 182.122 21.6758C182.35 21.2201 182.513 20.7806 182.61 20.3574C182.741 19.9017 182.903 19.4134 183.099 18.8926C183.522 18.4368 183.945 17.8835 184.368 17.2324C184.596 17.265 184.775 17.1999 184.905 17.0371C185.068 16.8743 185.296 16.8906 185.589 17.0859C185.589 17.1836 185.621 17.2812 185.687 17.3789C185.784 17.444 185.8 17.5579 185.735 17.7207C185.898 17.8835 186.028 18.0299 186.126 18.1602C186.224 18.2904 186.305 18.4368 186.37 18.5996C186.435 18.86 186.403 19.1693 186.272 19.5273C186.175 19.8529 186.207 20.1621 186.37 20.4551C186.435 20.6178 186.451 20.7806 186.419 20.9434C186.386 21.0736 186.403 21.2038 186.468 21.334C186.533 21.4967 186.614 21.6595 186.712 21.8223C186.842 21.985 186.907 22.1966 186.907 22.457C186.907 22.5547 186.875 22.6849 186.81 22.8477C186.777 22.9779 186.728 23.1243 186.663 23.2871C186.533 23.7754 186.435 24.1172 186.37 24.3125C186.305 24.5078 186.24 24.7194 186.175 24.9473C185.947 25.2077 185.833 25.3867 185.833 25.4844C185.833 25.5495 185.817 25.6146 185.784 25.6797C185.687 25.875 185.573 26.1191 185.442 26.4121C185.345 26.6725 185.247 26.8841 185.149 27.0469ZM205.413 42.7695C205.739 43.1602 205.885 43.4368 205.853 43.5996C205.853 43.7624 205.853 43.9414 205.853 44.1367C205.69 44.332 205.56 44.5436 205.462 44.7715C205.364 44.9668 205.218 45.1458 205.022 45.3086C204.86 45.4388 204.681 45.5365 204.485 45.6016C204.323 45.6341 204.176 45.7318 204.046 45.8945C203.851 45.9596 203.688 46.041 203.558 46.1387C203.427 46.2363 203.232 46.2689 202.972 46.2363C202.19 47.0176 201.491 47.6523 200.872 48.1406C200.286 48.6289 199.668 49.1009 199.017 49.5566C198.528 49.9798 198.007 50.3704 197.454 50.7285C196.933 51.0866 196.396 51.4447 195.843 51.8027C195.68 51.9655 195.534 52.1283 195.403 52.291C195.273 52.4212 195.11 52.5352 194.915 52.6328C194.524 53.0234 194.118 53.3815 193.694 53.707C193.304 54 192.929 54.3092 192.571 54.6348C192.213 54.8952 191.823 55.0742 191.399 55.1719C191.009 55.2695 190.634 55.3997 190.276 55.5625C189.658 55.8229 189.186 55.8717 188.86 55.709C188.502 55.7741 188.193 55.8229 187.933 55.8555C187.705 55.9206 187.412 55.9043 187.054 55.8066C186.956 55.7741 186.858 55.7253 186.761 55.6602C186.663 55.5951 186.549 55.5299 186.419 55.4648C186.093 55.3346 185.833 55.1882 185.638 55.0254C185.475 54.8952 185.328 54.765 185.198 54.6348C185.101 54.5371 184.987 54.3906 184.856 54.1953C184.726 54.0326 184.629 53.8861 184.563 53.7559C184.401 53.4954 184.303 53.1862 184.271 52.8281C184.205 52.4375 184.124 52.0632 184.026 51.7051C183.961 51.347 183.864 50.9889 183.733 50.6309C183.603 50.2728 183.554 49.8984 183.587 49.5078C183.619 49.2474 183.685 49.0033 183.782 48.7754C183.847 48.515 183.912 48.2546 183.978 47.9941C184.173 47.5384 184.336 47.1152 184.466 46.7246C184.596 46.334 184.743 45.9596 184.905 45.6016C185.003 45.4388 185.101 45.3086 185.198 45.2109C185.328 45.1133 185.442 44.9831 185.54 44.8203C185.605 44.7552 185.638 44.6576 185.638 44.5273C185.67 44.3971 185.719 44.2832 185.784 44.1855C186.045 43.8926 186.321 43.5996 186.614 43.3066C186.907 42.9811 187.168 42.6393 187.396 42.2812C187.558 42.0534 187.721 41.8581 187.884 41.6953C188.079 41.5 188.258 41.2884 188.421 41.0605C188.616 40.8001 188.746 40.6536 188.812 40.6211C188.909 40.556 188.991 40.4746 189.056 40.377C189.251 40.1816 189.43 39.9863 189.593 39.791C189.756 39.5632 189.918 39.3353 190.081 39.1074C190.309 38.8796 190.537 38.6354 190.765 38.375C191.025 38.1146 191.285 37.903 191.546 37.7402C191.839 37.5775 192.132 37.431 192.425 37.3008C192.75 37.1706 193.092 37.0241 193.45 36.8613C193.613 36.7962 193.759 36.7148 193.89 36.6172C194.052 36.5195 194.215 36.4382 194.378 36.373C194.573 36.3079 194.752 36.2591 194.915 36.2266C195.078 36.194 195.224 36.1126 195.354 35.9824C195.55 36.015 195.729 35.9824 195.892 35.8848C196.054 35.7871 196.217 35.7057 196.38 35.6406C196.543 35.6081 196.689 35.6081 196.819 35.6406C196.982 35.6732 197.112 35.6406 197.21 35.543C197.308 35.6081 197.405 35.6406 197.503 35.6406C197.633 35.6406 197.731 35.6732 197.796 35.7383C197.926 35.7708 198.04 35.8522 198.138 35.9824C198.268 36.1126 198.349 36.2591 198.382 36.4219C198.447 36.9102 198.317 37.4147 197.991 37.9355C197.698 38.4564 197.438 38.847 197.21 39.1074C197.047 39.3678 196.868 39.5957 196.673 39.791C196.478 39.9538 196.25 40.1165 195.989 40.2793C195.599 40.2793 195.192 40.3118 194.769 40.377C194.378 40.4095 194.02 40.3932 193.694 40.3281C193.629 40.4583 193.532 40.556 193.401 40.6211C193.304 40.6536 193.287 40.735 193.353 40.8652C192.246 41.8092 191.269 42.8184 190.423 43.8926C189.576 44.9342 188.909 46.1712 188.421 47.6035C188.258 48.1569 188.095 48.5638 187.933 48.8242C187.77 49.0521 187.688 49.2962 187.688 49.5566C187.884 50.2402 188.209 50.8262 188.665 51.3145C189.121 51.7702 189.576 52.0306 190.032 52.0957C190.553 52.1608 191.009 52.0632 191.399 51.8027C191.823 51.5423 192.213 51.3145 192.571 51.1191C193.027 50.7936 193.466 50.5007 193.89 50.2402C194.345 49.9798 194.817 49.7031 195.306 49.4102C195.436 49.3451 195.566 49.2799 195.696 49.2148C195.826 49.1172 195.957 49.0195 196.087 48.9219C196.51 48.6289 196.884 48.3522 197.21 48.0918C197.568 47.7988 197.926 47.5221 198.284 47.2617C198.447 47.2292 198.561 47.1803 198.626 47.1152C198.724 47.0176 198.854 46.9688 199.017 46.9688C199.603 46.4479 200.237 45.9922 200.921 45.6016C201.604 45.1784 202.321 44.7552 203.069 44.332C203.297 44.1042 203.525 43.9089 203.753 43.7461C204.013 43.5508 204.257 43.3392 204.485 43.1113C204.713 43.1113 204.876 43.0625 204.974 42.9648C205.071 42.8346 205.218 42.7695 205.413 42.7695ZM204.192 50.2891C204.941 49.638 205.625 48.9382 206.243 48.1895C206.894 47.4082 207.594 46.627 208.343 45.8457C208.506 45.6829 208.668 45.4876 208.831 45.2598C208.994 45.0319 209.157 44.7878 209.319 44.5273C209.45 44.332 209.612 44.153 209.808 43.9902C210.003 43.7949 210.166 43.6159 210.296 43.4531C210.394 43.2904 210.507 43.1602 210.638 43.0625C210.8 42.9648 210.963 42.8509 211.126 42.7207C211.289 42.5579 211.435 42.4277 211.565 42.3301C211.696 42.1999 211.842 42.0697 212.005 41.9395C212.298 41.7116 212.575 41.4837 212.835 41.2559C213.095 40.9954 213.405 40.7839 213.763 40.6211C213.958 40.5885 214.104 40.5234 214.202 40.4258C214.3 40.2956 214.414 40.1654 214.544 40.0352C214.707 40.0677 214.853 40.0514 214.983 39.9863C215.114 39.9212 215.26 39.8561 215.423 39.791C215.879 39.8887 216.237 40.0677 216.497 40.3281C216.79 40.5885 217.067 40.849 217.327 41.1094C217.555 41.207 217.734 41.3047 217.864 41.4023C217.994 41.4674 218.125 41.5488 218.255 41.6465C218.385 41.9069 218.499 42.151 218.597 42.3789C218.694 42.6068 218.743 42.8672 218.743 43.1602C218.743 43.3555 218.727 43.5508 218.694 43.7461C218.662 43.9414 218.629 44.1367 218.597 44.332C218.466 44.7227 218.418 44.9342 218.45 44.9668C218.483 44.9993 218.499 45.0482 218.499 45.1133C218.532 45.3737 218.434 45.6504 218.206 45.9434C218.011 46.2038 217.962 46.4805 218.06 46.7734C218.092 46.8711 218.043 47.1152 217.913 47.5059C217.815 47.8965 217.783 48.1406 217.815 48.2383C217.881 48.4336 217.913 48.694 217.913 49.0195C217.913 49.3125 217.994 49.5241 218.157 49.6543C218.483 49.7845 218.711 49.8496 218.841 49.8496C218.971 49.8496 219.085 49.8496 219.183 49.8496C219.573 49.6543 220.062 49.3288 220.647 48.873C221.233 48.3848 221.673 47.9779 221.966 47.6523C222.291 47.3919 222.584 47.1478 222.845 46.9199C223.105 46.6595 223.463 46.4154 223.919 46.1875C224.31 45.9271 224.57 45.7318 224.7 45.6016C224.83 45.4388 225.042 45.1947 225.335 44.8691C225.433 44.7715 225.547 44.6738 225.677 44.5762C225.84 44.4785 225.986 44.3646 226.116 44.2344C226.214 44.1367 226.344 44.0391 226.507 43.9414C226.67 43.8112 226.8 43.7298 226.897 43.6973C227.028 43.6973 227.207 43.6973 227.435 43.6973C227.695 43.6973 227.858 43.7624 227.923 43.8926C227.988 44.153 227.988 44.3809 227.923 44.5762C227.858 44.7715 227.776 44.9505 227.679 45.1133C227.549 45.3086 227.402 45.4876 227.239 45.6504C227.109 45.8783 226.963 46.0898 226.8 46.2852C226.637 46.4479 226.458 46.6432 226.263 46.8711C226.067 47.0664 225.84 47.2292 225.579 47.3594C225.416 47.5547 225.254 47.7337 225.091 47.8965C224.961 48.0267 224.814 48.1732 224.651 48.3359C224.489 48.4987 224.342 48.6777 224.212 48.873C224.082 49.0684 223.935 49.2474 223.772 49.4102C223.414 49.7031 223.056 49.9961 222.698 50.2891C222.373 50.5495 222.063 50.8587 221.771 51.2168C221.608 51.2819 221.478 51.3633 221.38 51.4609C221.282 51.526 221.168 51.5911 221.038 51.6562C220.713 51.7539 220.403 51.9167 220.11 52.1445C219.817 52.3724 219.508 52.6165 219.183 52.877C218.89 53.1048 218.58 53.3164 218.255 53.5117C217.929 53.707 217.571 53.7884 217.181 53.7559C216.823 53.9186 216.513 53.9349 216.253 53.8047C215.993 53.6419 215.732 53.4792 215.472 53.3164C215.114 53.0885 214.772 52.8281 214.446 52.5352C214.121 52.2422 213.925 51.8353 213.86 51.3145C213.795 50.4681 213.893 49.6706 214.153 48.9219C214.414 48.1732 214.609 47.4245 214.739 46.6758C214.739 46.6107 214.756 46.4967 214.788 46.334C214.853 46.1387 214.886 45.9434 214.886 45.748C214.918 45.5202 214.935 45.3249 214.935 45.1621C214.967 44.9668 214.967 44.8366 214.935 44.7715C214.869 44.7064 214.821 44.5924 214.788 44.4297C214.788 44.2669 214.658 44.1042 214.397 43.9414C214.235 43.8438 214.17 43.8275 214.202 43.8926C214.235 43.9577 214.104 43.9902 213.812 43.9902C213.551 44.0879 213.323 44.2181 213.128 44.3809C212.933 44.5436 212.721 44.7064 212.493 44.8691C212.168 45.2272 211.793 45.5527 211.37 45.8457C210.979 46.1387 210.638 46.4805 210.345 46.8711C210.084 47.1641 209.84 47.457 209.612 47.75C209.384 48.043 209.124 48.3359 208.831 48.6289C208.408 49.1172 207.968 49.6055 207.513 50.0938C207.057 50.582 206.601 51.054 206.146 51.5098C205.918 51.7702 205.706 52.0306 205.511 52.291C205.315 52.5514 205.104 52.8118 204.876 53.0723C204.485 53.5605 204.062 54.0326 203.606 54.4883C203.411 54.8138 203.134 55.123 202.776 55.416C202.418 55.709 202.06 55.9206 201.702 56.0508C201.604 55.9857 201.507 55.9857 201.409 56.0508C201.279 56.1159 201.165 56.1484 201.067 56.1484C200.677 55.9857 200.449 55.888 200.384 55.8555C200.319 55.8555 200.27 55.7904 200.237 55.6602C199.912 55.4648 199.798 55.1393 199.896 54.6836C199.961 54.2604 200.026 53.8861 200.091 53.5605C200.416 52.0957 200.872 50.6471 201.458 49.2148C202.011 47.75 202.451 46.3177 202.776 44.918C202.939 44.3646 203.102 43.86 203.265 43.4043C203.427 42.916 203.623 42.4115 203.851 41.8906C204.078 41.4349 204.225 40.9792 204.29 40.5234C204.388 40.0352 204.55 39.5632 204.778 39.1074C204.909 38.8796 205.022 38.6354 205.12 38.375C205.218 38.1146 205.315 37.8704 205.413 37.6426C205.771 36.9915 206.113 36.194 206.438 35.25C206.764 34.2734 207.106 33.4108 207.464 32.6621C207.854 31.6204 208.261 30.6113 208.685 29.6348C209.108 28.6582 209.58 27.6979 210.101 26.7539C210.263 26.1029 210.459 25.5007 210.687 24.9473C210.947 24.3613 211.256 23.7917 211.614 23.2383C211.94 22.8151 212.151 22.4733 212.249 22.2129C212.379 21.9525 212.526 21.7083 212.688 21.4805C213.079 21.0247 213.519 20.6667 214.007 20.4062C214.495 20.1133 214.918 19.7389 215.276 19.2832C215.537 19.153 215.781 19.0553 216.009 18.9902C216.269 18.9251 216.513 18.8438 216.741 18.7461C216.806 18.8112 216.839 18.9089 216.839 19.0391C216.871 19.1367 216.888 19.2344 216.888 19.332C216.953 19.332 216.969 19.4297 216.937 19.625C216.904 19.8203 216.904 19.9831 216.937 20.1133C216.937 20.6016 216.888 20.9271 216.79 21.0898C216.725 21.2526 216.66 21.4316 216.595 21.627C216.562 21.8223 216.546 22.0013 216.546 22.1641C216.546 22.2943 216.53 22.4245 216.497 22.5547C216.399 22.8477 216.351 23.0267 216.351 23.0918C216.383 23.1243 216.399 23.1732 216.399 23.2383C216.399 23.3685 216.383 23.515 216.351 23.6777C216.318 23.8405 216.302 24.0033 216.302 24.166C216.269 24.5241 216.172 24.8984 216.009 25.2891C215.879 25.6797 215.765 26.0378 215.667 26.3633C215.472 26.5911 215.358 26.7702 215.325 26.9004C215.293 27.0306 215.228 27.112 215.13 27.1445C214.935 27.6979 214.756 28.235 214.593 28.7559C214.43 29.2767 214.186 29.765 213.86 30.2207C213.73 30.5788 213.551 30.9368 213.323 31.2949C213.128 31.6204 212.949 31.946 212.786 32.2715C212.721 32.4342 212.64 32.597 212.542 32.7598C212.477 32.89 212.412 33.0365 212.347 33.1992C212.119 33.6224 211.875 34.0618 211.614 34.5176C211.386 34.9408 211.11 35.3314 210.784 35.6895C210.198 36.9264 209.58 38.1797 208.929 39.4492C208.278 40.6862 207.643 41.8906 207.024 43.0625C206.797 43.4206 206.634 43.7298 206.536 43.9902C206.438 44.2181 206.373 44.4297 206.341 44.625C206.341 44.7878 206.259 44.9505 206.097 45.1133C205.999 45.4062 205.901 45.6829 205.804 45.9434C205.739 46.2038 205.625 46.4479 205.462 46.6758C205.332 47.3594 205.12 47.9779 204.827 48.5312C204.567 49.0521 204.355 49.638 204.192 50.2891Z" fill="black"/>
</svg>
