<svg width="290" height="290" viewBox="0 0 290 290" fill="none" xmlns="http://www.w3.org/2000/svg">
<rect width="290" height="290" fill="white"/>
<path d="M144 122.5C129.999 122.5 127.882 133.888 131 149.5C133.41 155.351 133.802 157.816 133 161C131.031 167.659 128.482 169.74 120.5 169.5C114.479 166.821 111.271 164.159 106 157C94.9535 141.253 91.5753 132.283 91 116C91.7962 97.0067 95.5057 87.4601 108.5 72.5C111.539 70.9496 112.673 71.4437 114 74C114.5 86.6592 117.625 92.3823 128.5 100C140.759 106.39 147.865 106.315 161 100C169.394 94.2842 172.387 88.5869 174 74C175.969 70.2718 177.495 70.5085 180.5 72.5C196.394 93.6334 198.275 103.706 197 120.5C192.419 146.311 187.159 152.957 177.5 164C171.477 169.82 168.307 170.879 163 169.5C156.267 163.737 154.449 159.666 158 149.5C161.617 132.33 158 122.5 144 122.5Z" fill="black" stroke="black"/>
<path d="M165 73C165 76.866 161.418 80 157 80C152.582 80 149 76.866 149 73C148.889 72.721 148.895 72.4482 149 72.1823L163.785 68.3916C164.617 69.406 165 71.0456 165 73Z" fill="black"/>
<path d="M123 72.7639C123 76.7603 126.582 80 130.999 80C135.417 80 138.999 76.7603 138.999 72.7639C139.11 72.4754 139.104 72.1934 138.999 71.9186L124.215 68C123.383 69.0486 123 70.7435 123 72.7639Z" fill="black"/>
<path d="M184 52.5C184 59.4036 178.627 65 172 65C168.733 57.6253 166.073 54.4728 160.153 50.5C161.072 44.5471 166.026 40 172 40C178.627 40 184 45.5964 184 52.5Z" fill="black"/>
<path d="M105 51.925C105 58.511 110.373 63.85 117.002 63.85C120.269 56.8146 122.929 53.8071 128.85 50.017C127.931 44.338 122.976 40 117.002 40C110.373 40 105 45.339 105 51.925Z" fill="black"/>
<ellipse cx="144" cy="88.5" rx="8" ry="5.5" fill="black"/>
<rect x="48" y="223.213" width="184" height="17" transform="rotate(-5.68074 48 223.213)" fill="#85FFE2"/>
<path d="M88.3721 194.404C88.1768 194.827 88.0628 195.12 88.0303 195.283C88.0303 195.446 87.9977 195.609 87.9326 195.771C87.8675 195.934 87.8187 196.048 87.7861 196.113C87.7861 196.178 87.7536 196.276 87.6885 196.406C87.5908 196.569 87.4932 196.65 87.3955 196.65C87.2979 196.65 87.1676 196.732 87.0049 196.895C86.9398 196.992 86.8584 197.09 86.7607 197.188C86.6631 197.285 86.5817 197.367 86.5166 197.432C86.4189 197.594 86.3538 197.741 86.3213 197.871C86.2887 198.001 86.1748 198.099 85.9795 198.164C85.8818 198.197 85.7679 198.213 85.6377 198.213C85.54 198.18 85.4587 198.197 85.3936 198.262C85.0355 198.392 84.7425 198.473 84.5146 198.506C84.2868 198.538 84.0426 198.571 83.7822 198.604C83.3916 198.766 83.1312 198.848 83.001 198.848C82.8708 198.848 82.7406 198.864 82.6104 198.896C82.4801 198.929 82.3337 198.978 82.1709 199.043C82.0407 199.076 81.8779 199.124 81.6826 199.189C81.5199 199.743 81.292 200.215 80.999 200.605C80.7061 200.996 80.4619 201.468 80.2666 202.021C79.6807 202.965 79.1598 203.844 78.7041 204.658C78.2809 205.472 77.8903 206.253 77.5322 207.002C77.3695 207.165 77.223 207.36 77.0928 207.588C76.9951 207.816 76.8812 208.06 76.751 208.32C76.5882 208.646 76.4906 208.825 76.458 208.857C76.4255 208.89 76.3929 208.939 76.3604 209.004C76.2952 209.134 76.2301 209.281 76.165 209.443C76.0999 209.574 76.0348 209.72 75.9697 209.883C75.7744 210.143 75.6279 210.371 75.5303 210.566C75.4652 210.729 75.4001 210.892 75.335 211.055C75.2373 211.217 75.1396 211.38 75.042 211.543C74.9443 211.706 74.8467 211.885 74.749 212.08C74.4235 212.861 74.1305 213.545 73.8701 214.131C73.6423 214.684 73.4469 215.286 73.2842 215.938C73.2191 216.165 73.1377 216.426 73.04 216.719C72.9749 217.012 72.8936 217.24 72.7959 217.402C72.1774 218.997 71.5426 220.625 70.8916 222.285C70.2406 223.945 69.6221 225.622 69.0361 227.314C69.557 227.314 69.9801 227.233 70.3057 227.07C70.6312 226.875 71.0706 226.777 71.624 226.777C71.9821 227.266 72.0146 227.754 71.7217 228.242C71.4613 228.568 71.3148 228.812 71.2822 228.975C71.2497 229.137 71.2008 229.284 71.1357 229.414C70.9404 229.642 70.8102 229.805 70.7451 229.902C70.7126 230 70.6475 230.098 70.5498 230.195C70.2568 230.456 69.7523 230.635 69.0361 230.732C68.6781 230.798 68.3688 230.879 68.1084 230.977C67.8805 231.107 67.6201 231.204 67.3271 231.27C67.1318 231.302 66.9528 231.335 66.79 231.367C66.6273 231.4 66.4808 231.432 66.3506 231.465C66.2204 231.465 66.0902 231.449 65.96 231.416C65.8623 231.416 65.7646 231.449 65.667 231.514C65.1136 231.514 64.6416 231.546 64.251 231.611C63.8929 231.676 63.5348 231.758 63.1768 231.855C62.9163 231.921 62.6722 232.002 62.4443 232.1C62.1839 232.197 61.9072 232.246 61.6143 232.246C61.5166 232.246 61.4189 232.214 61.3213 232.148C61.2236 232.116 61.1097 232.1 60.9795 232.1C60.8818 232.002 60.7842 231.872 60.6865 231.709C60.5889 231.579 60.54 231.432 60.54 231.27C60.54 231.107 60.5726 230.944 60.6377 230.781C60.6702 230.651 60.6702 230.505 60.6377 230.342C60.6377 229.951 60.7842 229.658 61.0771 229.463C61.3376 229.235 61.5492 228.991 61.7119 228.73C62.2002 228.665 62.6396 228.551 63.0303 228.389C63.3883 228.226 63.8278 228.112 64.3486 228.047C64.8044 226.712 65.3089 225.345 65.8623 223.945C66.4157 222.546 66.9528 221.178 67.4736 219.844C67.5713 219.583 67.6689 219.339 67.7666 219.111C67.8968 218.851 68.0107 218.59 68.1084 218.33C68.2712 217.907 68.4339 217.5 68.5967 217.109C68.7594 216.686 68.9385 216.263 69.1338 215.84C69.3291 215.612 69.4756 215.335 69.5732 215.01C69.6383 214.847 69.6709 214.717 69.6709 214.619C69.7035 214.489 69.7523 214.342 69.8174 214.18C69.9476 213.919 70.0941 213.659 70.2568 213.398C70.4196 213.138 70.5824 212.878 70.7451 212.617C70.973 212.292 71.2008 211.982 71.4287 211.689C71.6891 211.364 71.9333 211.038 72.1611 210.713C72.389 210.062 72.6331 209.443 72.8936 208.857C73.1865 208.239 73.4632 207.62 73.7236 207.002C73.7887 206.579 73.9189 206.123 74.1143 205.635C74.3421 205.114 74.5374 204.674 74.7002 204.316C74.8955 203.958 75.0583 203.584 75.1885 203.193C75.3187 202.77 75.4977 202.38 75.7256 202.021C75.7907 201.794 75.8721 201.598 75.9697 201.436C76.0674 201.24 76.1488 201.029 76.2139 200.801C76.3441 200.605 76.4417 200.394 76.5068 200.166C76.6045 199.906 76.7021 199.645 76.7998 199.385C76.6696 199.45 76.5394 199.499 76.4092 199.531C76.3115 199.531 76.1976 199.548 76.0674 199.58C75.9697 199.613 75.8558 199.661 75.7256 199.727C75.5954 199.792 75.4489 199.84 75.2861 199.873C74.7653 199.938 74.3096 199.938 73.9189 199.873C73.4958 199.808 73.2191 199.515 73.0889 198.994C73.0563 198.734 73.1051 198.604 73.2354 198.604C73.3981 198.571 73.512 198.441 73.5771 198.213C73.5446 197.464 73.6423 196.911 73.8701 196.553C74.098 196.162 74.391 195.934 74.749 195.869C74.9118 195.804 75.0583 195.771 75.1885 195.771C75.3187 195.771 75.4489 195.706 75.5791 195.576C75.9046 195.479 76.2301 195.43 76.5557 195.43C76.9137 195.397 77.2718 195.348 77.6299 195.283C77.988 195.218 78.3298 195.169 78.6553 195.137C78.9808 195.072 79.29 195.039 79.583 195.039C79.9411 194.941 80.2666 194.86 80.5596 194.795C80.8525 194.697 81.2106 194.665 81.6338 194.697C81.8617 194.697 82.0732 194.73 82.2686 194.795C82.4639 194.827 82.6755 194.844 82.9033 194.844C83.1312 194.844 83.3428 194.86 83.5381 194.893C83.766 194.925 84.0101 194.909 84.2705 194.844C84.4658 194.811 84.6449 194.746 84.8076 194.648C85.0029 194.551 85.1982 194.535 85.3936 194.6C85.7191 194.535 86.0446 194.469 86.3701 194.404C86.7282 194.339 87.0863 194.307 87.4443 194.307C87.8024 194.339 87.9814 194.339 87.9814 194.307C87.9814 194.242 88.0303 194.225 88.1279 194.258L88.3721 194.404ZM92.083 226.143C92.2132 225.98 92.3109 225.866 92.376 225.801C92.4411 225.703 92.5387 225.622 92.6689 225.557C92.8968 225.068 93.141 224.678 93.4014 224.385C93.6943 224.059 93.9873 223.766 94.2803 223.506C94.5732 223.213 94.8825 222.952 95.208 222.725C95.5661 222.464 95.9567 222.155 96.3799 221.797C96.5426 221.797 96.6729 221.748 96.7705 221.65C96.9007 221.52 97.0472 221.423 97.21 221.357C97.4378 221.162 97.6169 221.016 97.7471 220.918C97.9098 220.82 98.04 220.69 98.1377 220.527C98.5283 220.332 98.8701 220.088 99.1631 219.795C99.4886 219.502 99.8304 219.225 100.188 218.965C100.481 218.9 100.758 218.932 101.019 219.062C101.149 219.323 101.198 219.6 101.165 219.893C101.132 220.186 100.97 220.348 100.677 220.381C100.579 220.479 100.465 220.576 100.335 220.674C100.237 220.771 100.107 220.837 99.9443 220.869C99.749 220.902 99.6025 220.951 99.5049 221.016C99.4398 221.048 99.3747 221.13 99.3096 221.26C99.277 221.585 99.2282 221.781 99.1631 221.846C99.1305 221.878 99.098 221.927 99.0654 221.992C98.8701 222.318 98.6585 222.611 98.4307 222.871C98.2354 223.099 98.04 223.327 97.8447 223.555C97.6494 223.75 97.4541 223.978 97.2588 224.238C97.0635 224.466 96.8519 224.759 96.624 225.117C96.4287 225.247 96.2822 225.426 96.1846 225.654C95.5986 225.98 95.1592 226.24 94.8662 226.436C94.6058 226.598 94.3617 226.81 94.1338 227.07C93.9385 227.201 93.8408 227.298 93.8408 227.363C93.8408 227.428 93.8083 227.493 93.7432 227.559C93.4176 227.819 93.2223 228.031 93.1572 228.193C93.1247 228.324 93.0596 228.421 92.9619 228.486C92.6364 228.714 92.3923 228.926 92.2295 229.121C92.0667 229.284 91.8551 229.414 91.5947 229.512C91.3994 229.674 91.1227 229.87 90.7646 230.098C90.4066 230.326 90.016 230.537 89.5928 230.732C89.1696 230.928 88.7464 231.058 88.3232 231.123C87.9326 231.221 87.5908 231.204 87.2979 231.074C87.1676 230.977 87.0537 230.879 86.9561 230.781C86.8584 230.716 86.7445 230.651 86.6143 230.586C86.3864 230.326 86.1423 230.114 85.8818 229.951C85.654 229.756 85.4424 229.512 85.2471 229.219C85.0192 228.893 84.8564 228.551 84.7588 228.193C84.6937 227.803 84.5798 227.428 84.417 227.07C84.3844 226.68 84.3844 226.305 84.417 225.947C84.4495 225.557 84.5146 225.231 84.6123 224.971C84.9704 223.864 85.3936 222.904 85.8818 222.09C86.4027 221.276 86.7607 220.348 86.9561 219.307C86.598 218.949 86.3864 218.623 86.3213 218.33C86.2887 218.005 86.2074 217.565 86.0771 217.012C85.2308 217.565 84.4495 218.265 83.7334 219.111C83.0173 219.958 82.3825 220.82 81.8291 221.699C81.6012 222.09 81.4059 222.448 81.2432 222.773C81.0804 223.099 80.8851 223.392 80.6572 223.652C80.4945 223.815 80.4131 223.929 80.4131 223.994C80.4131 224.027 80.3805 224.076 80.3154 224.141C80.055 224.466 79.8923 224.694 79.8271 224.824C79.762 224.954 79.6969 225.068 79.6318 225.166C79.5667 225.264 79.4854 225.361 79.3877 225.459C79.29 225.557 79.2087 225.654 79.1436 225.752C78.6878 226.403 78.2646 227.021 77.874 227.607C77.516 228.161 77.1416 228.73 76.751 229.316C76.5882 229.577 76.4417 229.854 76.3115 230.146C76.1813 230.439 76.0186 230.7 75.8232 230.928C75.4977 230.96 75.3187 230.911 75.2861 230.781C75.221 230.651 75.221 230.537 75.2861 230.439C75.0908 230.309 74.9443 230.114 74.8467 229.854C74.7165 229.561 74.6514 229.251 74.6514 228.926C74.6188 228.6 74.6188 228.275 74.6514 227.949C74.6839 227.624 74.749 227.347 74.8467 227.119C74.749 226.826 74.7165 226.663 74.749 226.631C74.7816 226.598 74.7979 226.549 74.7979 226.484C75.221 225.898 75.6605 225.312 76.1162 224.727C76.5394 224.141 76.9951 223.587 77.4834 223.066C77.6462 222.839 77.7926 222.611 77.9229 222.383C78.0856 222.155 78.2646 221.943 78.46 221.748C78.7529 221.227 79.0785 220.739 79.4365 220.283C79.8271 219.827 80.1527 219.323 80.4131 218.77C80.5758 218.607 80.6898 218.428 80.7549 218.232C80.8525 218.037 80.999 217.874 81.1943 217.744C81.4222 217.354 81.6012 216.979 81.7314 216.621C81.8617 216.263 82.0407 215.954 82.2686 215.693C82.3337 215.465 82.415 215.286 82.5127 215.156C82.6104 215.026 82.7406 214.88 82.9033 214.717C82.9359 214.554 83.0173 214.424 83.1475 214.326C83.3102 214.196 83.4404 214.049 83.5381 213.887C83.6032 213.659 83.6846 213.512 83.7822 213.447C83.8799 213.382 83.9287 213.268 83.9287 213.105C84.0915 212.943 84.2542 212.78 84.417 212.617C84.5798 212.422 84.7262 212.194 84.8564 211.934C85.3122 211.673 85.6214 211.543 85.7842 211.543C85.9795 211.543 86.126 211.462 86.2236 211.299C86.484 211.299 86.7933 211.299 87.1514 211.299C87.5094 211.266 87.7048 211.38 87.7373 211.641C87.7699 211.706 87.7699 211.787 87.7373 211.885C87.7048 211.982 87.6722 212.08 87.6396 212.178C87.6722 212.471 87.6722 212.633 87.6396 212.666C87.6071 212.666 87.5908 212.682 87.5908 212.715C87.5583 212.812 87.542 212.926 87.542 213.057C87.5745 213.187 87.5908 213.333 87.5908 213.496C87.5583 213.757 87.5257 213.968 87.4932 214.131C87.4606 214.261 87.5257 214.44 87.6885 214.668C87.7536 214.766 87.8512 214.863 87.9814 214.961C88.1117 215.026 88.2256 215.124 88.3232 215.254C88.4209 215.352 88.4697 215.449 88.4697 215.547C88.5023 215.645 88.5674 215.742 88.665 215.84C88.7301 215.938 88.8278 216.019 88.958 216.084C89.0882 216.149 89.1859 216.263 89.251 216.426C89.4137 216.556 89.4626 216.637 89.3975 216.67C89.3649 216.702 89.4463 216.768 89.6416 216.865C90.0322 217.354 90.3089 217.858 90.4717 218.379C90.667 218.77 90.846 219.095 91.0088 219.355C91.1715 219.616 91.1715 219.876 91.0088 220.137C90.9437 220.202 90.8786 220.283 90.8135 220.381C90.7809 220.479 90.7321 220.592 90.667 220.723C90.5368 220.853 90.4066 221.016 90.2764 221.211C90.2113 221.341 90.1624 221.471 90.1299 221.602C90.0973 221.699 90.0485 221.797 89.9834 221.895C89.6904 222.35 89.3812 222.773 89.0557 223.164C88.7627 223.555 88.5023 223.962 88.2744 224.385C88.307 225.329 88.486 226.012 88.8115 226.436C89.2021 226.891 89.4463 227.119 89.5439 227.119C89.7393 227.152 89.9671 227.087 90.2275 226.924C90.488 226.761 90.6995 226.631 90.8623 226.533C90.9925 226.468 91.1064 226.403 91.2041 226.338C91.3018 226.273 91.4157 226.224 91.5459 226.191C91.904 226.061 92.0667 226.029 92.0342 226.094C92.0016 226.126 92.0179 226.143 92.083 226.143ZM112.249 216.816C112.282 216.914 112.249 217.109 112.151 217.402C111.989 217.598 111.891 217.809 111.858 218.037C111.793 218.167 111.728 218.281 111.663 218.379C111.631 218.477 111.598 218.607 111.565 218.77C111.5 218.965 111.468 219.193 111.468 219.453C111.5 219.714 111.5 219.958 111.468 220.186C111.403 220.544 111.354 220.902 111.321 221.26C111.289 221.585 111.256 221.927 111.224 222.285C111.224 222.643 111.191 223.05 111.126 223.506C111.061 223.962 110.996 224.368 110.931 224.727C111.061 224.954 111.142 225.199 111.175 225.459C111.207 225.719 111.321 225.931 111.517 226.094C112.168 225.996 112.688 225.85 113.079 225.654C113.47 225.426 113.844 225.117 114.202 224.727C114.495 224.596 114.69 224.482 114.788 224.385C114.918 224.287 115.114 224.157 115.374 223.994C115.439 223.929 115.504 223.864 115.569 223.799C115.634 223.734 115.7 223.669 115.765 223.604C116.123 223.408 116.334 223.278 116.399 223.213C116.497 223.148 116.611 223.083 116.741 223.018C117.295 222.66 117.718 222.285 118.011 221.895C118.304 221.667 118.499 221.471 118.597 221.309C118.727 221.113 118.987 220.934 119.378 220.771C119.606 220.511 119.834 220.299 120.062 220.137C120.322 219.941 120.566 219.714 120.794 219.453C120.957 219.453 121.087 219.486 121.185 219.551C121.282 219.616 121.396 219.681 121.526 219.746C121.624 220.007 121.64 220.283 121.575 220.576C121.51 220.837 121.396 221.081 121.233 221.309C121.071 221.536 120.989 221.667 120.989 221.699C120.989 221.732 120.973 221.764 120.94 221.797C120.843 221.927 120.713 222.057 120.55 222.188C120.42 222.285 120.306 222.399 120.208 222.529C120.045 222.822 119.915 222.969 119.817 222.969C119.72 222.969 119.638 223.001 119.573 223.066C119.28 223.229 119.069 223.359 118.938 223.457C118.841 223.555 118.662 223.685 118.401 223.848C118.043 224.043 117.832 224.173 117.767 224.238C117.701 224.303 117.636 224.352 117.571 224.385C117.148 224.84 116.757 225.215 116.399 225.508C116.074 225.768 115.716 226.126 115.325 226.582C115.195 226.68 115.065 226.777 114.935 226.875C114.804 226.973 114.69 227.103 114.593 227.266C114.3 227.461 114.056 227.656 113.86 227.852C113.698 228.047 113.502 228.275 113.274 228.535C113.079 228.633 112.868 228.779 112.64 228.975C112.412 229.137 112.168 229.284 111.907 229.414C111.777 229.479 111.631 229.561 111.468 229.658C111.338 229.723 111.191 229.756 111.028 229.756C110.638 229.821 110.28 229.788 109.954 229.658C109.629 229.528 109.319 229.43 109.026 229.365C108.896 229.17 108.733 229.007 108.538 228.877C108.245 228.519 108.034 228.096 107.903 227.607C107.773 227.119 107.643 226.598 107.513 226.045C107.252 226.208 107.008 226.419 106.78 226.68C106.552 226.94 106.259 227.152 105.901 227.314C105.25 227.933 104.55 228.535 103.802 229.121C103.086 229.674 102.353 230.26 101.604 230.879C101.507 230.977 101.409 231.058 101.312 231.123C101.214 231.188 101.132 231.204 101.067 231.172C100.905 231.367 100.677 231.481 100.384 231.514C100.123 231.579 99.8304 231.579 99.5049 231.514C99.1794 231.351 98.8864 231.237 98.626 231.172C98.3656 231.107 98.1051 231.009 97.8447 230.879C97.2913 230.781 96.8356 230.537 96.4775 230.146C96.0869 229.756 95.7614 229.3 95.501 228.779C95.4033 228.519 95.3382 228.275 95.3057 228.047C95.2406 227.819 95.1755 227.559 95.1104 227.266C95.0778 227.005 95.029 226.794 94.9639 226.631C94.8988 226.436 94.8988 226.257 94.9639 226.094C94.8988 225.996 94.8825 225.898 94.915 225.801C94.9476 225.671 94.9639 225.54 94.9639 225.41C94.9313 224.954 94.9801 224.466 95.1104 223.945C95.208 223.424 95.3545 222.952 95.5498 222.529C95.6149 222.399 95.7451 222.236 95.9404 222.041C96.0055 221.943 96.0544 221.846 96.0869 221.748C96.1195 221.65 96.1683 221.569 96.2334 221.504C96.2985 221.406 96.3962 221.309 96.5264 221.211C96.6566 221.113 96.7705 221.016 96.8682 220.918C97.0309 220.69 97.21 220.495 97.4053 220.332C97.6331 220.137 97.8447 219.941 98.04 219.746C98.1377 219.648 98.2191 219.535 98.2842 219.404C98.3818 219.274 98.512 219.176 98.6748 219.111C98.805 218.883 98.9515 218.704 99.1143 218.574C99.277 218.411 99.4561 218.249 99.6514 218.086C100.205 217.402 100.888 216.833 101.702 216.377C102.516 215.921 103.248 215.4 103.899 214.814C104.127 214.717 104.323 214.603 104.485 214.473C104.648 214.342 104.811 214.212 104.974 214.082C105.397 213.724 105.836 213.61 106.292 213.74C106.748 213.87 107.171 213.984 107.562 214.082C107.887 214.375 108.196 214.668 108.489 214.961C108.815 215.254 109.091 215.579 109.319 215.938C109.547 215.905 109.808 215.905 110.101 215.938C110.394 215.938 110.703 215.905 111.028 215.84C111.126 215.84 111.224 215.824 111.321 215.791C111.419 215.726 111.5 215.693 111.565 215.693C112.054 215.856 112.298 216.1 112.298 216.426L112.249 216.816ZM105.853 217.158C104.974 217.581 104.176 218.086 103.46 218.672C102.744 219.225 102.06 219.827 101.409 220.479C101.246 220.641 101.067 220.804 100.872 220.967C100.709 221.097 100.563 221.243 100.433 221.406C100.302 221.569 100.172 221.764 100.042 221.992C99.9443 222.22 99.8467 222.432 99.749 222.627C99.6839 222.757 99.6188 222.871 99.5537 222.969C99.4886 223.034 99.4235 223.115 99.3584 223.213C99.2933 223.376 99.2607 223.538 99.2607 223.701C99.2933 223.864 99.3096 224.043 99.3096 224.238C99.3096 224.401 99.3096 224.564 99.3096 224.727C99.3096 224.889 99.3258 225.052 99.3584 225.215C99.4561 225.573 99.5049 225.931 99.5049 226.289C99.5049 226.549 99.5212 226.875 99.5537 227.266C99.6188 227.624 99.749 227.868 99.9443 227.998C100.14 228.128 100.335 228.161 100.53 228.096C100.758 228.031 100.953 227.982 101.116 227.949C102.256 227.07 103.33 226.159 104.339 225.215C105.348 224.238 106.243 223.148 107.024 221.943C106.959 221.097 106.943 220.283 106.976 219.502C107.041 218.688 106.976 217.939 106.78 217.256C106.65 217.191 106.487 217.174 106.292 217.207C106.129 217.207 105.983 217.191 105.853 217.158ZM159.71 194.99C159.808 195.283 159.856 195.479 159.856 195.576C159.922 195.674 160.035 195.82 160.198 196.016C160.394 196.178 160.54 196.26 160.638 196.26C161.028 196.26 161.24 196.276 161.272 196.309C161.338 196.341 161.403 196.374 161.468 196.406C161.468 196.764 161.484 196.96 161.517 196.992C161.549 197.025 161.582 197.074 161.614 197.139C161.614 197.269 161.582 197.497 161.517 197.822C161.451 198.083 161.338 198.343 161.175 198.604C161.012 198.864 160.849 199.124 160.687 199.385C160.524 199.645 160.345 199.889 160.149 200.117C159.987 200.345 159.824 200.573 159.661 200.801C159.498 201.029 159.384 201.257 159.319 201.484C159.254 201.68 159.091 201.875 158.831 202.07C158.603 202.233 158.375 202.396 158.147 202.559C157.92 202.721 157.708 202.9 157.513 203.096L156.927 203.828C156.862 203.991 156.764 204.137 156.634 204.268C156.536 204.365 156.455 204.479 156.39 204.609C156.194 204.902 156.032 205.195 155.901 205.488C155.804 205.781 155.592 206.042 155.267 206.27C154.811 207.083 154.29 207.832 153.704 208.516C153.118 209.199 152.565 209.932 152.044 210.713C152.402 210.745 152.76 210.745 153.118 210.713C153.509 210.648 153.932 210.599 154.388 210.566C155.364 210.501 156.276 210.452 157.122 210.42C157.968 210.387 158.815 210.371 159.661 210.371C159.922 210.566 160.003 210.811 159.905 211.104C159.743 211.104 159.612 211.152 159.515 211.25C159.45 211.315 159.336 211.315 159.173 211.25C159.043 211.315 158.961 211.396 158.929 211.494C158.896 211.592 158.847 211.673 158.782 211.738C158.587 212.324 158.147 212.633 157.464 212.666C156.813 212.666 156.211 212.699 155.657 212.764C155.299 212.796 155.104 212.829 155.071 212.861C155.071 212.861 155.055 212.861 155.022 212.861C154.437 212.926 153.834 213.008 153.216 213.105C152.63 213.171 152.044 213.236 151.458 213.301C151.295 213.431 151.1 213.48 150.872 213.447C150.677 213.382 150.498 213.382 150.335 213.447C150.237 213.512 150.172 213.594 150.14 213.691C150.107 213.789 150.058 213.887 149.993 213.984C149.83 214.212 149.684 214.424 149.554 214.619C149.424 214.814 149.277 215.026 149.114 215.254C148.951 215.417 148.789 215.596 148.626 215.791C148.496 215.986 148.366 216.198 148.235 216.426C148.105 216.523 147.991 216.637 147.894 216.768C147.828 216.898 147.747 217.028 147.649 217.158C147.389 217.516 147.112 217.891 146.819 218.281C146.526 218.639 146.233 218.997 145.94 219.355C145.778 219.648 145.599 219.941 145.403 220.234C145.241 220.495 145.062 220.788 144.866 221.113C144.769 221.309 144.671 221.52 144.573 221.748C144.508 221.943 144.443 222.139 144.378 222.334C144.28 222.594 144.166 222.822 144.036 223.018C143.938 223.18 143.857 223.376 143.792 223.604C143.629 223.864 143.466 224.141 143.304 224.434C143.141 224.727 142.978 225.036 142.815 225.361C142.392 226.012 141.937 226.712 141.448 227.461C140.993 228.177 140.553 228.926 140.13 229.707C140 229.902 139.886 230.098 139.788 230.293C139.69 230.521 139.56 230.716 139.397 230.879C139.3 231.009 139.186 231.107 139.056 231.172C138.958 231.237 138.86 231.302 138.763 231.367C138.502 231.562 138.193 231.774 137.835 232.002C137.477 232.23 137.168 232.425 136.907 232.588C136.549 232.718 136.305 232.881 136.175 233.076C136.045 233.271 135.947 233.483 135.882 233.711C135.394 233.939 135.052 233.939 134.856 233.711C134.661 233.483 134.58 233.271 134.612 233.076C134.612 232.946 134.694 232.767 134.856 232.539C135.052 232.311 135.182 232.132 135.247 232.002L135.735 231.27C135.833 231.009 135.898 230.83 135.931 230.732C135.996 230.635 136.061 230.537 136.126 230.439C136.191 230.309 136.24 230.212 136.272 230.146C136.338 230.081 136.37 229.984 136.37 229.854C136.533 229.658 136.663 229.463 136.761 229.268C136.858 229.04 136.972 228.812 137.103 228.584C137.363 228.324 137.591 228.014 137.786 227.656C137.981 227.298 138.226 226.973 138.519 226.68C138.584 226.484 138.665 226.322 138.763 226.191C138.86 226.061 138.974 225.931 139.104 225.801C139.3 225.41 139.511 225.036 139.739 224.678C139.967 224.287 140.114 223.831 140.179 223.311C140.309 222.79 140.472 222.399 140.667 222.139C140.862 221.878 141.041 221.602 141.204 221.309C141.269 221.081 141.334 220.869 141.399 220.674C141.465 220.479 141.578 220.299 141.741 220.137C141.937 219.811 142.099 219.518 142.229 219.258C142.36 218.997 142.506 218.704 142.669 218.379C142.832 217.923 143.076 217.467 143.401 217.012C143.466 216.914 143.532 216.833 143.597 216.768C143.662 216.67 143.727 216.556 143.792 216.426C143.922 216.23 144.02 216.019 144.085 215.791C144.183 215.563 144.297 215.352 144.427 215.156C144.524 214.993 144.622 214.863 144.72 214.766C144.85 214.635 144.915 214.44 144.915 214.18C144.622 214.115 144.362 214.147 144.134 214.277C143.743 214.31 143.287 214.375 142.767 214.473C142.278 214.538 141.774 214.57 141.253 214.57C141.09 214.57 140.895 214.587 140.667 214.619C140.472 214.619 140.276 214.635 140.081 214.668C139.918 214.733 139.756 214.814 139.593 214.912C139.43 214.977 139.267 214.928 139.104 214.766C138.974 214.57 138.877 214.473 138.812 214.473C138.779 214.44 138.746 214.391 138.714 214.326C138.551 214.001 138.372 213.74 138.177 213.545C138.112 213.447 138.063 213.366 138.03 213.301C138.03 213.203 137.965 213.122 137.835 213.057C137.737 212.959 137.64 212.78 137.542 212.52C137.868 212.096 138.307 211.885 138.86 211.885C140.293 211.559 141.709 211.331 143.108 211.201C144.508 211.071 145.892 210.908 147.259 210.713C147.356 210.648 147.422 210.566 147.454 210.469C147.519 210.339 147.584 210.225 147.649 210.127C147.812 209.932 147.975 209.753 148.138 209.59C148.333 209.395 148.479 209.167 148.577 208.906C148.707 208.841 148.789 208.76 148.821 208.662C148.854 208.564 148.919 208.483 149.017 208.418C149.147 208.255 149.212 208.109 149.212 207.979C149.244 207.848 149.293 207.751 149.358 207.686C149.716 207.197 149.961 206.855 150.091 206.66C150.221 206.432 150.368 206.204 150.53 205.977C150.693 205.749 150.856 205.553 151.019 205.391C151.181 205.195 151.344 205 151.507 204.805C151.637 204.642 151.751 204.512 151.849 204.414C151.946 204.284 152.044 204.154 152.142 204.023C152.402 203.568 152.744 203.096 153.167 202.607C153.525 202.184 153.818 201.729 154.046 201.24C154.241 201.208 154.355 201.126 154.388 200.996C154.453 200.833 154.55 200.703 154.681 200.605C154.843 200.215 155.039 199.873 155.267 199.58C155.494 199.255 155.69 198.896 155.853 198.506C155.69 198.473 155.494 198.506 155.267 198.604C155.039 198.701 154.795 198.75 154.534 198.75C154.209 198.815 153.948 198.88 153.753 198.945C153.558 199.01 153.33 199.076 153.069 199.141C152.581 199.206 152.06 199.352 151.507 199.58C150.986 199.808 150.481 199.987 149.993 200.117C148.756 200.247 147.584 200.378 146.478 200.508C145.371 200.638 144.248 200.752 143.108 200.85C142.848 200.882 142.588 200.915 142.327 200.947C142.067 200.98 141.806 200.996 141.546 200.996C141.025 200.996 140.504 201.045 139.983 201.143C139.821 201.11 139.674 201.11 139.544 201.143C139.414 201.175 139.267 201.175 139.104 201.143C138.714 201.012 138.47 200.915 138.372 200.85C138.274 200.785 138.144 200.752 137.981 200.752C137.851 200.687 137.754 200.622 137.688 200.557C137.623 200.492 137.558 200.459 137.493 200.459C137.265 200.166 137.135 199.987 137.103 199.922C137.07 199.824 137.168 199.71 137.396 199.58C137.526 199.255 137.786 199.059 138.177 198.994C138.6 198.929 138.942 198.831 139.202 198.701C139.658 198.604 140.097 198.522 140.521 198.457C140.976 198.359 141.448 198.262 141.937 198.164C142.457 198.001 142.864 197.92 143.157 197.92C143.45 197.887 143.727 197.806 143.987 197.676C144.476 197.643 144.931 197.578 145.354 197.48C145.81 197.35 146.266 197.236 146.722 197.139C146.852 197.074 146.982 197.041 147.112 197.041C147.275 197.008 147.405 196.943 147.503 196.846C147.861 196.846 148.04 196.813 148.04 196.748C149.7 196.423 151.312 196.048 152.874 195.625C154.437 195.202 156.08 194.909 157.806 194.746C158.164 194.714 158.506 194.73 158.831 194.795C159.189 194.827 159.482 194.893 159.71 194.99ZM162.347 216.084C162.119 216.377 161.891 216.654 161.663 216.914C161.435 217.174 161.175 217.419 160.882 217.646C160.687 218.005 160.459 218.33 160.198 218.623C159.938 218.916 159.677 219.193 159.417 219.453C159.287 219.714 159.14 219.925 158.978 220.088C158.815 220.218 158.636 220.365 158.44 220.527C158.343 220.69 158.213 220.853 158.05 221.016C157.92 221.178 157.789 221.341 157.659 221.504C157.562 221.667 157.48 221.846 157.415 222.041C157.35 222.236 157.366 222.448 157.464 222.676C157.822 222.741 158.18 222.692 158.538 222.529C158.896 222.367 159.205 222.22 159.466 222.09C159.726 221.927 159.987 221.797 160.247 221.699C160.54 221.569 160.8 221.423 161.028 221.26L162.298 219.99C162.526 219.795 162.721 219.583 162.884 219.355C163.047 219.128 163.226 218.883 163.421 218.623C163.486 218.298 163.616 217.972 163.812 217.646C164.007 217.288 164.088 216.947 164.056 216.621C164.023 216.426 163.958 216.263 163.86 216.133C163.795 215.97 163.746 215.807 163.714 215.645C163.388 215.645 163.128 215.71 162.933 215.84C162.77 215.938 162.575 216.019 162.347 216.084ZM154.485 219.209C154.55 219.176 154.681 219.046 154.876 218.818C155.104 218.558 155.348 218.281 155.608 217.988C155.869 217.663 156.113 217.386 156.341 217.158C156.569 216.898 156.731 216.751 156.829 216.719C156.927 216.556 157.008 216.426 157.073 216.328C157.171 216.198 157.301 216.084 157.464 215.986C157.724 215.498 158.066 215.107 158.489 214.814C158.912 214.489 159.319 214.115 159.71 213.691C160.328 213.431 160.947 213.105 161.565 212.715C162.216 212.292 162.933 212.064 163.714 212.031C164.072 212.194 164.414 212.243 164.739 212.178C165.097 212.113 165.423 212.194 165.716 212.422C165.879 212.715 166.025 212.91 166.155 213.008C166.285 213.073 166.383 213.154 166.448 213.252C166.578 213.675 166.676 213.952 166.741 214.082C166.806 214.18 166.855 214.31 166.888 214.473C166.92 214.961 166.953 215.319 166.985 215.547C167.018 215.742 167.018 215.938 166.985 216.133C166.888 217.012 166.725 217.842 166.497 218.623C166.432 218.818 166.367 219.03 166.302 219.258C166.237 219.453 166.155 219.632 166.058 219.795C165.83 220.088 165.651 220.348 165.521 220.576C165.423 220.771 165.325 220.934 165.228 221.064C164.837 221.455 164.495 221.781 164.202 222.041C163.909 222.204 163.616 222.383 163.323 222.578C163.03 222.773 162.705 222.904 162.347 222.969C162.184 223.066 162.037 223.164 161.907 223.262C161.777 223.327 161.614 223.376 161.419 223.408C161.093 223.636 160.768 223.815 160.442 223.945C160.117 224.043 159.775 224.173 159.417 224.336C159.222 224.401 159.01 224.515 158.782 224.678C158.554 224.84 158.326 224.971 158.099 225.068C157.903 225.133 157.659 225.199 157.366 225.264C157.106 225.296 156.894 225.345 156.731 225.41C156.894 225.768 156.959 226.175 156.927 226.631C156.894 227.087 156.976 227.493 157.171 227.852C157.594 227.949 158.05 228.031 158.538 228.096C159.059 228.128 159.547 228.112 160.003 228.047C160.166 228.014 160.345 227.965 160.54 227.9C160.735 227.803 160.931 227.738 161.126 227.705C161.484 227.64 161.826 227.559 162.151 227.461C162.509 227.363 162.819 227.233 163.079 227.07C164.023 226.745 164.935 226.305 165.813 225.752C166.692 225.199 167.457 224.596 168.108 223.945C168.499 223.685 168.922 223.327 169.378 222.871C169.866 222.415 170.241 221.992 170.501 221.602C170.989 221.081 171.412 220.674 171.771 220.381C172.161 220.088 172.519 219.958 172.845 219.99C173.105 219.99 173.349 220.153 173.577 220.479C173.838 220.771 173.821 221.097 173.528 221.455C173.203 221.65 172.861 221.943 172.503 222.334C172.145 222.725 171.771 223.001 171.38 223.164C171.087 223.359 170.713 223.717 170.257 224.238C169.834 224.759 169.476 225.15 169.183 225.41C169.052 225.54 168.873 225.703 168.646 225.898C168.45 226.061 168.287 226.224 168.157 226.387C167.701 226.777 167.213 227.135 166.692 227.461C166.497 227.396 166.351 227.428 166.253 227.559C166.155 227.689 166.025 227.819 165.862 227.949C165.765 228.014 165.651 228.079 165.521 228.145C165.423 228.21 165.325 228.275 165.228 228.34C164.967 228.568 164.674 228.796 164.349 229.023C164.056 229.251 163.746 229.447 163.421 229.609C162.77 230 162.119 230.326 161.468 230.586C160.817 230.879 160.182 231.237 159.563 231.66C159.368 231.693 159.189 231.709 159.026 231.709C158.864 231.742 158.701 231.774 158.538 231.807C158.343 231.872 158.164 231.904 158.001 231.904C157.871 231.904 157.675 231.872 157.415 231.807C156.829 231.644 156.341 231.449 155.95 231.221C155.56 230.993 155.169 230.667 154.778 230.244C154.583 230.049 154.371 229.87 154.144 229.707C153.916 229.544 153.737 229.365 153.606 229.17C153.509 229.007 153.395 228.747 153.265 228.389C153.134 228.031 153.021 227.656 152.923 227.266C152.825 226.842 152.744 226.436 152.679 226.045C152.614 225.654 152.581 225.361 152.581 225.166C152.646 225.036 152.728 224.808 152.825 224.482C152.89 224.157 152.972 223.815 153.069 223.457C153.134 223.066 153.2 222.708 153.265 222.383C153.297 222.057 153.313 221.829 153.313 221.699C153.346 221.667 153.427 221.536 153.558 221.309C153.688 221.048 153.834 220.771 153.997 220.479C154.127 220.186 154.241 219.925 154.339 219.697C154.437 219.437 154.485 219.274 154.485 219.209ZM185.149 203.047C185.573 203.112 185.931 203.161 186.224 203.193C186.517 203.226 186.777 203.258 187.005 203.291C187.265 203.291 187.526 203.291 187.786 203.291C188.047 203.258 188.372 203.21 188.763 203.145C189.479 203.047 190.114 202.965 190.667 202.9C191.253 202.803 191.888 202.721 192.571 202.656C192.767 202.624 192.962 202.624 193.157 202.656C193.385 202.689 193.597 202.705 193.792 202.705C194.215 202.705 194.622 202.689 195.013 202.656C195.436 202.624 195.826 202.591 196.185 202.559C196.315 202.526 196.429 202.493 196.526 202.461C196.624 202.428 196.722 202.428 196.819 202.461C197.112 202.461 197.405 202.461 197.698 202.461C197.991 202.428 198.252 202.526 198.479 202.754C198.577 203.079 198.61 203.258 198.577 203.291C198.545 203.324 198.512 203.372 198.479 203.438C198.447 203.861 198.382 204.072 198.284 204.072C198.219 204.072 198.187 204.105 198.187 204.17C197.926 204.235 197.698 204.3 197.503 204.365C197.34 204.398 197.21 204.495 197.112 204.658C196.559 204.788 196.038 204.821 195.55 204.756C195.094 204.658 194.622 204.723 194.134 204.951C193.906 205.049 193.662 205.179 193.401 205.342C193.174 205.472 192.881 205.472 192.522 205.342C192.197 205.342 191.823 205.358 191.399 205.391C190.976 205.423 190.569 205.456 190.179 205.488C189.43 205.553 188.779 205.618 188.226 205.684C187.705 205.716 187.2 205.749 186.712 205.781C186.224 205.781 185.719 205.798 185.198 205.83C184.71 205.863 184.108 205.879 183.392 205.879C183.131 206.107 182.952 206.383 182.854 206.709C182.789 207.035 182.627 207.295 182.366 207.49C182.106 208.109 181.894 208.532 181.731 208.76C181.569 208.955 181.455 209.199 181.39 209.492C180.934 210.078 180.511 210.697 180.12 211.348C179.762 211.966 179.339 212.552 178.851 213.105C178.785 213.464 178.655 213.789 178.46 214.082C178.297 214.342 178.183 214.701 178.118 215.156C177.76 215.645 177.5 216.182 177.337 216.768C177.174 217.354 176.963 217.972 176.702 218.623C176.637 218.883 176.556 219.144 176.458 219.404C176.393 219.632 176.312 219.876 176.214 220.137C176.084 220.462 175.921 220.771 175.726 221.064C175.563 221.325 175.4 221.618 175.237 221.943C175.172 222.008 175.14 222.106 175.14 222.236C175.14 222.334 175.123 222.415 175.091 222.48C174.993 222.708 174.896 222.92 174.798 223.115C174.7 223.278 174.619 223.441 174.554 223.604C174.489 223.766 174.44 223.945 174.407 224.141C174.407 224.303 174.375 224.466 174.31 224.629C174.277 224.727 174.244 224.824 174.212 224.922C174.179 224.987 174.147 225.068 174.114 225.166C174.017 225.622 174.017 225.931 174.114 226.094C174.212 226.257 174.293 226.419 174.358 226.582C174.424 226.777 174.489 226.956 174.554 227.119C174.619 227.249 174.668 227.396 174.7 227.559C174.863 227.624 175.009 227.689 175.14 227.754C175.302 227.819 175.465 227.852 175.628 227.852C175.823 227.884 176.035 227.803 176.263 227.607C176.491 227.38 176.686 227.249 176.849 227.217C177.076 227.152 177.288 227.119 177.483 227.119C177.711 227.119 177.907 227.07 178.069 226.973C178.265 226.81 178.427 226.647 178.558 226.484C178.688 226.322 178.867 226.208 179.095 226.143C179.616 226.012 179.892 225.915 179.925 225.85C179.957 225.752 180.071 225.622 180.267 225.459C180.494 225.296 180.69 225.15 180.853 225.02C181.048 224.857 181.276 224.694 181.536 224.531C181.862 224.368 182.041 224.271 182.073 224.238C182.138 224.206 182.285 224.092 182.513 223.896C182.838 223.734 183.115 223.555 183.343 223.359C183.571 223.164 183.831 222.985 184.124 222.822C184.45 222.692 184.645 222.611 184.71 222.578C184.775 222.513 184.808 222.464 184.808 222.432C184.84 222.399 184.873 222.35 184.905 222.285C184.97 222.22 185.133 222.106 185.394 221.943C185.524 221.683 185.67 221.471 185.833 221.309C185.996 221.146 186.191 220.934 186.419 220.674C186.614 220.446 186.81 220.251 187.005 220.088C187.233 219.925 187.428 219.762 187.591 219.6C187.688 219.535 187.77 219.469 187.835 219.404C187.9 219.307 188.014 219.242 188.177 219.209C188.372 219.046 188.519 218.916 188.616 218.818C188.746 218.688 188.942 218.509 189.202 218.281C189.267 218.216 189.349 218.135 189.446 218.037C189.544 217.939 189.625 217.874 189.69 217.842C189.821 217.842 189.918 217.891 189.983 217.988C190.081 218.086 190.195 218.135 190.325 218.135C190.293 218.558 190.276 218.835 190.276 218.965C190.276 219.062 190.244 219.176 190.179 219.307C189.983 219.6 189.756 219.762 189.495 219.795C189.267 219.827 189.088 220.007 188.958 220.332C188.86 220.267 188.73 220.251 188.567 220.283C188.437 220.316 188.34 220.365 188.274 220.43C188.34 220.56 188.372 220.674 188.372 220.771C188.372 220.869 188.388 220.983 188.421 221.113C187.835 221.699 187.444 222.171 187.249 222.529C186.858 222.952 186.647 223.197 186.614 223.262C186.582 223.294 186.565 223.311 186.565 223.311C186.565 223.311 186.549 223.327 186.517 223.359C186.484 223.392 186.37 223.506 186.175 223.701C185.719 224.059 185.377 224.401 185.149 224.727C184.922 225.052 184.58 225.345 184.124 225.605C183.766 225.866 183.522 226.061 183.392 226.191C183.261 226.322 183.066 226.501 182.806 226.729C182.675 226.859 182.545 227.005 182.415 227.168C182.317 227.298 182.187 227.428 182.024 227.559C181.797 227.721 181.569 227.868 181.341 227.998C181.146 228.128 180.966 228.291 180.804 228.486C180.315 228.714 179.957 228.975 179.729 229.268C179.534 229.561 179.225 229.837 178.802 230.098C178.509 230.293 178.102 230.537 177.581 230.83C177.093 231.123 176.67 231.335 176.312 231.465C176.214 231.497 176.116 231.53 176.019 231.562C175.953 231.595 175.872 231.628 175.774 231.66C175.514 231.497 175.254 231.335 174.993 231.172C174.765 231.009 174.57 230.781 174.407 230.488C174.114 230.26 173.87 230.098 173.675 230C173.512 229.902 173.349 229.772 173.187 229.609C172.861 229.056 172.487 228.503 172.063 227.949C171.673 227.396 171.364 226.777 171.136 226.094C171.071 225.964 171.022 225.833 170.989 225.703C170.989 225.54 170.973 225.378 170.94 225.215C170.875 224.954 170.81 224.727 170.745 224.531C170.68 224.336 170.664 224.092 170.696 223.799C170.696 223.604 170.729 223.392 170.794 223.164C170.859 222.936 170.924 222.692 170.989 222.432C171.119 222.008 171.266 221.602 171.429 221.211C171.624 220.82 171.771 220.397 171.868 219.941C171.966 219.583 172.063 219.258 172.161 218.965C172.259 218.672 172.373 218.346 172.503 217.988C172.568 217.826 172.601 217.679 172.601 217.549C172.633 217.386 172.731 217.272 172.894 217.207C173.024 216.556 173.235 215.938 173.528 215.352C173.821 214.733 174.114 214.147 174.407 213.594C174.765 212.91 175.091 212.21 175.384 211.494C175.709 210.778 176.051 210.078 176.409 209.395C176.442 209.004 176.572 208.678 176.8 208.418C176.832 208.06 176.963 207.718 177.19 207.393C177.418 207.035 177.581 206.676 177.679 206.318C177.321 206.221 176.914 206.221 176.458 206.318C176.035 206.383 175.66 206.449 175.335 206.514C174.749 206.546 174.131 206.546 173.479 206.514C173.252 206.481 173.024 206.449 172.796 206.416C172.601 206.351 172.405 206.318 172.21 206.318C171.917 206.351 171.689 206.335 171.526 206.27C171.396 206.172 171.25 206.156 171.087 206.221C170.664 205.863 170.354 205.618 170.159 205.488C169.964 205.358 169.785 205.244 169.622 205.146C169.427 205.016 169.264 204.886 169.134 204.756C168.971 204.593 168.841 204.365 168.743 204.072C168.743 203.975 168.792 203.893 168.89 203.828C168.987 203.763 169.069 203.698 169.134 203.633C169.394 203.568 169.687 203.551 170.013 203.584C170.338 203.584 170.599 203.519 170.794 203.389C171.315 203.454 171.787 203.421 172.21 203.291C172.666 203.161 173.138 203.112 173.626 203.145C173.724 203.145 173.821 203.161 173.919 203.193C174.017 203.226 174.114 203.242 174.212 203.242C174.375 203.275 174.505 203.275 174.603 203.242C174.733 203.21 174.879 203.177 175.042 203.145C175.237 203.112 175.449 203.112 175.677 203.145C175.905 203.177 176.132 203.177 176.36 203.145C176.784 203.112 177.288 203.161 177.874 203.291C178.493 203.389 179.03 203.356 179.485 203.193C179.648 202.738 179.827 202.282 180.022 201.826C180.25 201.338 180.429 200.866 180.56 200.41C180.69 200.215 180.82 200.003 180.95 199.775C181.08 199.515 181.178 199.271 181.243 199.043C181.438 198.717 181.585 198.457 181.683 198.262C181.813 198.066 181.959 197.871 182.122 197.676C182.35 197.22 182.513 196.781 182.61 196.357C182.741 195.902 182.903 195.413 183.099 194.893C183.522 194.437 183.945 193.883 184.368 193.232C184.596 193.265 184.775 193.2 184.905 193.037C185.068 192.874 185.296 192.891 185.589 193.086C185.589 193.184 185.621 193.281 185.687 193.379C185.784 193.444 185.8 193.558 185.735 193.721C185.898 193.883 186.028 194.03 186.126 194.16C186.224 194.29 186.305 194.437 186.37 194.6C186.435 194.86 186.403 195.169 186.272 195.527C186.175 195.853 186.207 196.162 186.37 196.455C186.435 196.618 186.451 196.781 186.419 196.943C186.386 197.074 186.403 197.204 186.468 197.334C186.533 197.497 186.614 197.66 186.712 197.822C186.842 197.985 186.907 198.197 186.907 198.457C186.907 198.555 186.875 198.685 186.81 198.848C186.777 198.978 186.728 199.124 186.663 199.287C186.533 199.775 186.435 200.117 186.37 200.312C186.305 200.508 186.24 200.719 186.175 200.947C185.947 201.208 185.833 201.387 185.833 201.484C185.833 201.549 185.817 201.615 185.784 201.68C185.687 201.875 185.573 202.119 185.442 202.412C185.345 202.673 185.247 202.884 185.149 203.047ZM205.413 218.77C205.739 219.16 205.885 219.437 205.853 219.6C205.853 219.762 205.853 219.941 205.853 220.137C205.69 220.332 205.56 220.544 205.462 220.771C205.364 220.967 205.218 221.146 205.022 221.309C204.86 221.439 204.681 221.536 204.485 221.602C204.323 221.634 204.176 221.732 204.046 221.895C203.851 221.96 203.688 222.041 203.558 222.139C203.427 222.236 203.232 222.269 202.972 222.236C202.19 223.018 201.491 223.652 200.872 224.141C200.286 224.629 199.668 225.101 199.017 225.557C198.528 225.98 198.007 226.37 197.454 226.729C196.933 227.087 196.396 227.445 195.843 227.803C195.68 227.965 195.534 228.128 195.403 228.291C195.273 228.421 195.11 228.535 194.915 228.633C194.524 229.023 194.118 229.382 193.694 229.707C193.304 230 192.929 230.309 192.571 230.635C192.213 230.895 191.823 231.074 191.399 231.172C191.009 231.27 190.634 231.4 190.276 231.562C189.658 231.823 189.186 231.872 188.86 231.709C188.502 231.774 188.193 231.823 187.933 231.855C187.705 231.921 187.412 231.904 187.054 231.807C186.956 231.774 186.858 231.725 186.761 231.66C186.663 231.595 186.549 231.53 186.419 231.465C186.093 231.335 185.833 231.188 185.638 231.025C185.475 230.895 185.328 230.765 185.198 230.635C185.101 230.537 184.987 230.391 184.856 230.195C184.726 230.033 184.629 229.886 184.563 229.756C184.401 229.495 184.303 229.186 184.271 228.828C184.205 228.438 184.124 228.063 184.026 227.705C183.961 227.347 183.864 226.989 183.733 226.631C183.603 226.273 183.554 225.898 183.587 225.508C183.619 225.247 183.685 225.003 183.782 224.775C183.847 224.515 183.912 224.255 183.978 223.994C184.173 223.538 184.336 223.115 184.466 222.725C184.596 222.334 184.743 221.96 184.905 221.602C185.003 221.439 185.101 221.309 185.198 221.211C185.328 221.113 185.442 220.983 185.54 220.82C185.605 220.755 185.638 220.658 185.638 220.527C185.67 220.397 185.719 220.283 185.784 220.186C186.045 219.893 186.321 219.6 186.614 219.307C186.907 218.981 187.168 218.639 187.396 218.281C187.558 218.053 187.721 217.858 187.884 217.695C188.079 217.5 188.258 217.288 188.421 217.061C188.616 216.8 188.746 216.654 188.812 216.621C188.909 216.556 188.991 216.475 189.056 216.377C189.251 216.182 189.43 215.986 189.593 215.791C189.756 215.563 189.918 215.335 190.081 215.107C190.309 214.88 190.537 214.635 190.765 214.375C191.025 214.115 191.285 213.903 191.546 213.74C191.839 213.577 192.132 213.431 192.425 213.301C192.75 213.171 193.092 213.024 193.45 212.861C193.613 212.796 193.759 212.715 193.89 212.617C194.052 212.52 194.215 212.438 194.378 212.373C194.573 212.308 194.752 212.259 194.915 212.227C195.078 212.194 195.224 212.113 195.354 211.982C195.55 212.015 195.729 211.982 195.892 211.885C196.054 211.787 196.217 211.706 196.38 211.641C196.543 211.608 196.689 211.608 196.819 211.641C196.982 211.673 197.112 211.641 197.21 211.543C197.308 211.608 197.405 211.641 197.503 211.641C197.633 211.641 197.731 211.673 197.796 211.738C197.926 211.771 198.04 211.852 198.138 211.982C198.268 212.113 198.349 212.259 198.382 212.422C198.447 212.91 198.317 213.415 197.991 213.936C197.698 214.456 197.438 214.847 197.21 215.107C197.047 215.368 196.868 215.596 196.673 215.791C196.478 215.954 196.25 216.117 195.989 216.279C195.599 216.279 195.192 216.312 194.769 216.377C194.378 216.41 194.02 216.393 193.694 216.328C193.629 216.458 193.532 216.556 193.401 216.621C193.304 216.654 193.287 216.735 193.353 216.865C192.246 217.809 191.269 218.818 190.423 219.893C189.576 220.934 188.909 222.171 188.421 223.604C188.258 224.157 188.095 224.564 187.933 224.824C187.77 225.052 187.688 225.296 187.688 225.557C187.884 226.24 188.209 226.826 188.665 227.314C189.121 227.77 189.576 228.031 190.032 228.096C190.553 228.161 191.009 228.063 191.399 227.803C191.823 227.542 192.213 227.314 192.571 227.119C193.027 226.794 193.466 226.501 193.89 226.24C194.345 225.98 194.817 225.703 195.306 225.41C195.436 225.345 195.566 225.28 195.696 225.215C195.826 225.117 195.957 225.02 196.087 224.922C196.51 224.629 196.884 224.352 197.21 224.092C197.568 223.799 197.926 223.522 198.284 223.262C198.447 223.229 198.561 223.18 198.626 223.115C198.724 223.018 198.854 222.969 199.017 222.969C199.603 222.448 200.237 221.992 200.921 221.602C201.604 221.178 202.321 220.755 203.069 220.332C203.297 220.104 203.525 219.909 203.753 219.746C204.013 219.551 204.257 219.339 204.485 219.111C204.713 219.111 204.876 219.062 204.974 218.965C205.071 218.835 205.218 218.77 205.413 218.77ZM204.192 226.289C204.941 225.638 205.625 224.938 206.243 224.189C206.894 223.408 207.594 222.627 208.343 221.846C208.506 221.683 208.668 221.488 208.831 221.26C208.994 221.032 209.157 220.788 209.319 220.527C209.45 220.332 209.612 220.153 209.808 219.99C210.003 219.795 210.166 219.616 210.296 219.453C210.394 219.29 210.507 219.16 210.638 219.062C210.8 218.965 210.963 218.851 211.126 218.721C211.289 218.558 211.435 218.428 211.565 218.33C211.696 218.2 211.842 218.07 212.005 217.939C212.298 217.712 212.575 217.484 212.835 217.256C213.095 216.995 213.405 216.784 213.763 216.621C213.958 216.589 214.104 216.523 214.202 216.426C214.3 216.296 214.414 216.165 214.544 216.035C214.707 216.068 214.853 216.051 214.983 215.986C215.114 215.921 215.26 215.856 215.423 215.791C215.879 215.889 216.237 216.068 216.497 216.328C216.79 216.589 217.067 216.849 217.327 217.109C217.555 217.207 217.734 217.305 217.864 217.402C217.994 217.467 218.125 217.549 218.255 217.646C218.385 217.907 218.499 218.151 218.597 218.379C218.694 218.607 218.743 218.867 218.743 219.16C218.743 219.355 218.727 219.551 218.694 219.746C218.662 219.941 218.629 220.137 218.597 220.332C218.466 220.723 218.418 220.934 218.45 220.967C218.483 220.999 218.499 221.048 218.499 221.113C218.532 221.374 218.434 221.65 218.206 221.943C218.011 222.204 217.962 222.48 218.06 222.773C218.092 222.871 218.043 223.115 217.913 223.506C217.815 223.896 217.783 224.141 217.815 224.238C217.881 224.434 217.913 224.694 217.913 225.02C217.913 225.312 217.994 225.524 218.157 225.654C218.483 225.785 218.711 225.85 218.841 225.85C218.971 225.85 219.085 225.85 219.183 225.85C219.573 225.654 220.062 225.329 220.647 224.873C221.233 224.385 221.673 223.978 221.966 223.652C222.291 223.392 222.584 223.148 222.845 222.92C223.105 222.66 223.463 222.415 223.919 222.188C224.31 221.927 224.57 221.732 224.7 221.602C224.83 221.439 225.042 221.195 225.335 220.869C225.433 220.771 225.547 220.674 225.677 220.576C225.84 220.479 225.986 220.365 226.116 220.234C226.214 220.137 226.344 220.039 226.507 219.941C226.67 219.811 226.8 219.73 226.897 219.697C227.028 219.697 227.207 219.697 227.435 219.697C227.695 219.697 227.858 219.762 227.923 219.893C227.988 220.153 227.988 220.381 227.923 220.576C227.858 220.771 227.776 220.951 227.679 221.113C227.549 221.309 227.402 221.488 227.239 221.65C227.109 221.878 226.963 222.09 226.8 222.285C226.637 222.448 226.458 222.643 226.263 222.871C226.067 223.066 225.84 223.229 225.579 223.359C225.416 223.555 225.254 223.734 225.091 223.896C224.961 224.027 224.814 224.173 224.651 224.336C224.489 224.499 224.342 224.678 224.212 224.873C224.082 225.068 223.935 225.247 223.772 225.41C223.414 225.703 223.056 225.996 222.698 226.289C222.373 226.549 222.063 226.859 221.771 227.217C221.608 227.282 221.478 227.363 221.38 227.461C221.282 227.526 221.168 227.591 221.038 227.656C220.713 227.754 220.403 227.917 220.11 228.145C219.817 228.372 219.508 228.617 219.183 228.877C218.89 229.105 218.58 229.316 218.255 229.512C217.929 229.707 217.571 229.788 217.181 229.756C216.823 229.919 216.513 229.935 216.253 229.805C215.993 229.642 215.732 229.479 215.472 229.316C215.114 229.089 214.772 228.828 214.446 228.535C214.121 228.242 213.925 227.835 213.86 227.314C213.795 226.468 213.893 225.671 214.153 224.922C214.414 224.173 214.609 223.424 214.739 222.676C214.739 222.611 214.756 222.497 214.788 222.334C214.853 222.139 214.886 221.943 214.886 221.748C214.918 221.52 214.935 221.325 214.935 221.162C214.967 220.967 214.967 220.837 214.935 220.771C214.869 220.706 214.821 220.592 214.788 220.43C214.788 220.267 214.658 220.104 214.397 219.941C214.235 219.844 214.17 219.827 214.202 219.893C214.235 219.958 214.104 219.99 213.812 219.99C213.551 220.088 213.323 220.218 213.128 220.381C212.933 220.544 212.721 220.706 212.493 220.869C212.168 221.227 211.793 221.553 211.37 221.846C210.979 222.139 210.638 222.48 210.345 222.871C210.084 223.164 209.84 223.457 209.612 223.75C209.384 224.043 209.124 224.336 208.831 224.629C208.408 225.117 207.968 225.605 207.513 226.094C207.057 226.582 206.601 227.054 206.146 227.51C205.918 227.77 205.706 228.031 205.511 228.291C205.315 228.551 205.104 228.812 204.876 229.072C204.485 229.561 204.062 230.033 203.606 230.488C203.411 230.814 203.134 231.123 202.776 231.416C202.418 231.709 202.06 231.921 201.702 232.051C201.604 231.986 201.507 231.986 201.409 232.051C201.279 232.116 201.165 232.148 201.067 232.148C200.677 231.986 200.449 231.888 200.384 231.855C200.319 231.855 200.27 231.79 200.237 231.66C199.912 231.465 199.798 231.139 199.896 230.684C199.961 230.26 200.026 229.886 200.091 229.561C200.416 228.096 200.872 226.647 201.458 225.215C202.011 223.75 202.451 222.318 202.776 220.918C202.939 220.365 203.102 219.86 203.265 219.404C203.427 218.916 203.623 218.411 203.851 217.891C204.078 217.435 204.225 216.979 204.29 216.523C204.388 216.035 204.55 215.563 204.778 215.107C204.909 214.88 205.022 214.635 205.12 214.375C205.218 214.115 205.315 213.87 205.413 213.643C205.771 212.992 206.113 212.194 206.438 211.25C206.764 210.273 207.106 209.411 207.464 208.662C207.854 207.62 208.261 206.611 208.685 205.635C209.108 204.658 209.58 203.698 210.101 202.754C210.263 202.103 210.459 201.501 210.687 200.947C210.947 200.361 211.256 199.792 211.614 199.238C211.94 198.815 212.151 198.473 212.249 198.213C212.379 197.952 212.526 197.708 212.688 197.48C213.079 197.025 213.519 196.667 214.007 196.406C214.495 196.113 214.918 195.739 215.276 195.283C215.537 195.153 215.781 195.055 216.009 194.99C216.269 194.925 216.513 194.844 216.741 194.746C216.806 194.811 216.839 194.909 216.839 195.039C216.871 195.137 216.888 195.234 216.888 195.332C216.953 195.332 216.969 195.43 216.937 195.625C216.904 195.82 216.904 195.983 216.937 196.113C216.937 196.602 216.888 196.927 216.79 197.09C216.725 197.253 216.66 197.432 216.595 197.627C216.562 197.822 216.546 198.001 216.546 198.164C216.546 198.294 216.53 198.424 216.497 198.555C216.399 198.848 216.351 199.027 216.351 199.092C216.383 199.124 216.399 199.173 216.399 199.238C216.399 199.368 216.383 199.515 216.351 199.678C216.318 199.84 216.302 200.003 216.302 200.166C216.269 200.524 216.172 200.898 216.009 201.289C215.879 201.68 215.765 202.038 215.667 202.363C215.472 202.591 215.358 202.77 215.325 202.9C215.293 203.031 215.228 203.112 215.13 203.145C214.935 203.698 214.756 204.235 214.593 204.756C214.43 205.277 214.186 205.765 213.86 206.221C213.73 206.579 213.551 206.937 213.323 207.295C213.128 207.62 212.949 207.946 212.786 208.271C212.721 208.434 212.64 208.597 212.542 208.76C212.477 208.89 212.412 209.036 212.347 209.199C212.119 209.622 211.875 210.062 211.614 210.518C211.386 210.941 211.11 211.331 210.784 211.689C210.198 212.926 209.58 214.18 208.929 215.449C208.278 216.686 207.643 217.891 207.024 219.062C206.797 219.421 206.634 219.73 206.536 219.99C206.438 220.218 206.373 220.43 206.341 220.625C206.341 220.788 206.259 220.951 206.097 221.113C205.999 221.406 205.901 221.683 205.804 221.943C205.739 222.204 205.625 222.448 205.462 222.676C205.332 223.359 205.12 223.978 204.827 224.531C204.567 225.052 204.355 225.638 204.192 226.289Z" fill="black"/>
</svg>
